<svg xmlns="http://www.w3.org/2000/svg" width="234" height="325" fill="none"><g filter="url(#a)"><path stroke="url(#b)" stroke-linecap="round" stroke-linejoin="round" stroke-width="20" d="M71.5 208H117m-45.5 0a45.505 45.505 0 0 0-42.037 28.088A45.5 45.5 0 1 0 117 253.5V208m-45.5 0a45.5 45.5 0 0 1 0-91m45.5 91v-45.5M71.5 117H117m-45.5 0a45.5 45.5 0 0 1 0-91H117m0 136.5V117m0 45.5a45.502 45.502 0 0 0 54.377 44.626 45.496 45.496 0 0 0 23.296-12.453 45.496 45.496 0 0 0-6.895-70.005A45.502 45.502 0 0 0 162.5 117M117 162.5a45.5 45.5 0 0 1 45.5-45.5m-45.5 0V26m0 91h45.5M117 26h45.5a45.5 45.5 0 0 1 0 91" shape-rendering="crispEdges"/></g><defs><linearGradient id="b" x1="87.026" x2="223.991" y1="26" y2="374.625" gradientUnits="userSpaceOnUse"><stop offset=".394" stop-color="#F8F8F8"/><stop offset="1" stop-color="#6788FF"/></linearGradient><filter id="a" width="234" height="325" x="0" y="0" color-interpolation-filters="sRGB" filterUnits="userSpaceOnUse"><feFlood flood-opacity="0" result="BackgroundImageFix"/><feColorMatrix in="SourceAlpha" result="hardAlpha" values="0 0 0 0 0 0 0 0 0 0 0 0 0 0 0 0 0 0 127 0"/><feOffset/><feGaussianBlur stdDeviation="8"/><feComposite in2="hardAlpha" operator="out"/><feColorMatrix values="0 0 0 0 0 0 0 0 0 0.315948 0 0 0 0 0.394445 0 0 0 0.4 0"/><feBlend in2="BackgroundImageFix" result="effect1_dropShadow_5031_146"/><feColorMatrix in="SourceAlpha" result="hardAlpha" values="0 0 0 0 0 0 0 0 0 0 0 0 0 0 0 0 0 0 127 0"/><feOffset dy="4"/><feGaussianBlur stdDeviation="2"/><feComposite in2="hardAlpha" operator="out"/><feColorMatrix values="0 0 0 0 0 0 0 0 0 0 0 0 0 0 0 0 0 0 0.25 0"/><feBlend in2="effect1_dropShadow_5031_146" result="effect2_dropShadow_5031_146"/><feBlend in="SourceGraphic" in2="effect2_dropShadow_5031_146" result="shape"/></filter></defs></svg>