<svg xmlns="http://www.w3.org/2000/svg" width="82" height="82" fill="none"><g filter="url(#a)"><path fill="url(#b)" d="M37.584 51.25v-6.833a10.25 10.25 0 1 1 0-20.5V20.5a3.417 3.417 0 0 1 6.833 0v3.417h.075A10.175 10.175 0 0 1 54.667 34.09a3.417 3.417 0 1 1-6.834 0 3.342 3.342 0 0 0-3.341-3.341h-.075v6.833a10.25 10.25 0 0 1 0 20.5V61.5a3.417 3.417 0 1 1-6.834 0v-3.417h-.174a10.076 10.076 0 0 1-10.075-10.075 3.417 3.417 0 1 1 6.833 0 3.245 3.245 0 0 0 3.242 3.242h.175zm6.833 0a3.417 3.417 0 0 0 0-6.833v6.833zm-6.834-20.5a3.417 3.417 0 0 0 0 6.833V30.75zM41 75.167C22.13 75.167 6.834 59.87 6.834 41S22.13 6.833 41 6.833C59.87 6.833 75.167 22.13 75.167 41S59.87 75.167 41 75.167zm0-6.834a27.333 27.333 0 1 0 0-54.667 27.333 27.333 0 0 0 0 54.667z"/></g><defs><linearGradient id="b" x1="-17.5" x2="75" y1="7" y2="91.5" gradientUnits="userSpaceOnUse"><stop stop-color="#F8F8F8"/><stop offset="1" stop-color="#fff"/></linearGradient><filter id="a" width="78.334" height="78.333" x="1.833" y="1.833" color-interpolation-filters="sRGB" filterUnits="userSpaceOnUse"><feFlood flood-opacity="0" result="BackgroundImageFix"/><feColorMatrix in="SourceAlpha" result="hardAlpha" values="0 0 0 0 0 0 0 0 0 0 0 0 0 0 0 0 0 0 127 0"/><feOffset dx="2" dy="2"/><feComposite in2="hardAlpha" operator="out"/><feColorMatrix values="0 0 0 0 0 0 0 0 0 0.438889 0 0 0 0 0.344677 0 0 0 1 0"/><feBlend in2="BackgroundImageFix" result="effect1_dropShadow_5025_68"/><feColorMatrix in="SourceAlpha" result="hardAlpha" values="0 0 0 0 0 0 0 0 0 0 0 0 0 0 0 0 0 0 127 0"/><feOffset/><feGaussianBlur stdDeviation="2.5"/><feComposite in2="hardAlpha" operator="out"/><feColorMatrix values="0 0 0 0 1 0 0 0 0 1 0 0 0 0 1 0 0 0 1 0"/><feBlend in2="effect1_dropShadow_5025_68" result="effect2_dropShadow_5025_68"/><feBlend in="SourceGraphic" in2="effect2_dropShadow_5025_68" result="shape"/></filter></defs></svg>