<svg xmlns="http://www.w3.org/2000/svg" width="178" height="183" fill="none"><g filter="url(#a)"><path fill="url(#b)" d="M88.67 120.602a28.936 28.936 0 0 1-20.52-8.55 29.283 29.283 0 0 1-8.5-20.643 29.282 29.282 0 0 1 8.5-20.643 28.933 28.933 0 0 1 20.52-8.55 28.932 28.932 0 0 1 20.52 8.55 29.283 29.283 0 0 1 8.5 20.643 29.284 29.284 0 0 1-8.5 20.643 28.935 28.935 0 0 1-20.52 8.55zM150.275 99.5c.332-2.67.581-5.338.581-8.091 0-2.753-.249-5.505-.581-8.34l17.495-13.597c1.575-1.25 1.99-3.503.995-5.338l-16.583-28.86c-.995-1.834-3.233-2.585-5.058-1.834l-20.645 8.34c-4.312-3.252-8.789-6.088-14.013-8.173l-3.067-22.104a4.233 4.233 0 0 0-1.436-2.514 4.181 4.181 0 0 0-2.71-.989H72.087a4.199 4.199 0 0 0-4.146 3.503l-3.067 22.104c-5.224 2.085-9.701 4.92-14.013 8.174L30.216 33.44c-1.825-.75-4.063 0-5.058 1.835L8.575 64.135a4.128 4.128 0 0 0 .995 5.337l17.495 13.596c-.332 2.836-.58 5.588-.58 8.341 0 2.752.248 5.421.58 8.09L9.57 113.347a4.128 4.128 0 0 0-.995 5.338l16.583 28.859c.995 1.835 3.233 2.502 5.057 1.835l20.646-8.424c4.312 3.336 8.789 6.172 14.013 8.257l3.067 22.104a4.199 4.199 0 0 0 4.146 3.503h33.166a4.199 4.199 0 0 0 4.146-3.503l3.067-22.104c5.224-2.168 9.701-4.921 14.013-8.257l20.645 8.424c1.825.667 4.063 0 5.058-1.835l16.583-28.859c.995-1.835.58-4.087-.995-5.338L150.275 99.5z"/></g><defs><radialGradient id="b" cx="0" cy="0" r="1" gradientTransform="matrix(0 83.409 -80.6516 0 88.652 91.409)" gradientUnits="userSpaceOnUse"><stop stop-color="#FFDCEA"/><stop offset=".37" stop-color="#FEEAF1"/><stop offset=".604" stop-color="#fff"/><stop offset=".649" stop-color="#FEE9F1"/><stop offset=".714" stop-color="#FFEBF3"/><stop offset=".844" stop-color="#FBF0F5"/><stop offset="1" stop-color="#fff"/></radialGradient><filter id="a" width="177.303" height="182.818" x="0" y="0" color-interpolation-filters="sRGB" filterUnits="userSpaceOnUse"><feFlood flood-opacity="0" result="BackgroundImageFix"/><feColorMatrix in="SourceAlpha" result="hardAlpha" values="0 0 0 0 0 0 0 0 0 0 0 0 0 0 0 0 0 0 127 0"/><feOffset/><feGaussianBlur stdDeviation="4"/><feComposite in2="hardAlpha" operator="out"/><feColorMatrix values="0 0 0 0 0.419445 0 0 0 0 0 0 0 0 0 0.2265 0 0 0 0.3 0"/><feBlend in2="BackgroundImageFix" result="effect1_dropShadow_5027_120"/><feBlend in="SourceGraphic" in2="effect1_dropShadow_5027_120" result="shape"/></filter></defs></svg>