<svg xmlns="http://www.w3.org/2000/svg" width="75" height="30" fill="none"><path fill="#fff" d="M9.629 8.065c0-5.494-1.823-7.87-6.3-7.87H0v29.61h3.328c4.359 0 6.42-2.22 6.42-8.571 0-3.663-1.07-5.922-2.695-6.935 1.625-.896 2.576-2.883 2.576-6.234zm-3.963 0c0 3.74-.555 4.402-1.743 4.402V3.701c1.188 0 1.743.74 1.743 4.364zm0 13.169c0 4.363-.515 5.065-1.743 5.065v-10.13c1.188 0 1.743.857 1.743 5.065zM11.028.194v29.611h3.923v-13.48c.158-.04.317-.04.475-.04l1.466 13.52h3.765L18.676 14.61c1.307-1.168 1.98-3 1.98-6.155 0-5.961-1.822-8.26-6.3-8.26h-3.328zm5.666 8.26c0 4.091-.554 4.754-1.743 4.754V3.7c1.149 0 1.743.585 1.743 4.754zM21.584 15c0 13.09 1.743 15 4.953 15s4.953-1.91 4.953-15-1.744-15-4.953-15c-3.21 0-4.953 1.91-4.953 15zm5.824 0c0 9.974-.198 11.805-.871 11.805-.634 0-.872-1.831-.872-11.805s.238-11.805.872-11.805c.673 0 .871 1.831.871 11.805zM32.218.195l1.703 29.61h5.627l.594-21.935.277-4.247.278 4.247.594 21.935h5.627L48.622.195h-3.685l-.714 21.935-.277 4.247-.277-4.247L42.876.195h-4.913L37.17 22.13l-.277 4.247-.277-4.247L35.902.195h-3.685zm22.974 0h-5.507v29.61h3.605l-.396-20.337V2.766l.555 6.702 1.585 20.337h5.508V.195h-3.606l.396 20.337v6.702l-.555-6.702L55.192.195zm11.11 29.61V.195h-4.003v29.61h4.002zM75 26.3h-3.051V16.17h2.655v-3.702h-2.655V3.701H75V.195h-6.974v29.61H75V26.3z" opacity=".6"/></svg>