<svg xmlns="http://www.w3.org/2000/svg" width="33" height="33" fill="none"><path fill="#F8F8F8" d="M16.321 3.354c-7.36 0-13.333 5.973-13.333 13.333S8.96 30.02 16.32 30.02c7.347 0 13.333-5.973 13.333-13.333S23.668 3.354 16.322 3.354zM25.128 9.5c1.64 2 2.549 4.5 2.573 7.085-.375-.072-4.134-.838-7.924-.36-.087-.189-.16-.392-.245-.594a33.678 33.678 0 0 0-.752-1.648c4.193-1.707 6.102-4.165 6.348-4.483zM16.32 5.32a11.37 11.37 0 0 1 7.55 2.864c-.203.288-1.924 2.588-5.974 4.107-1.865-3.427-3.933-6.233-4.252-6.667a11.582 11.582 0 0 1 2.676-.304zm-4.844 1.07a71.856 71.856 0 0 1 4.223 6.58c-5.323 1.418-10.023 1.387-10.528 1.387a11.441 11.441 0 0 1 6.305-7.966zM4.925 16.7v-.346c.493.013 6.016.086 11.7-1.62.334.636.636 1.286.925 1.937-.145.044-.303.087-.448.13-5.872 1.894-8.996 7.071-9.256 7.506a11.363 11.363 0 0 1-2.92-7.607zm11.396 11.383a11.31 11.31 0 0 1-6.985-2.4c.202-.42 2.517-4.875 8.937-7.116.03-.014.044-.014.072-.03a47.087 47.087 0 0 1 2.43 8.634 11.201 11.201 0 0 1-4.454.912zm6.348-1.953c-.114-.694-.723-4.02-2.213-8.113 3.573-.564 6.697.362 7.087.492a11.292 11.292 0 0 1-4.874 7.62z"/></svg>