<svg xmlns="http://www.w3.org/2000/svg" width="46" height="37" fill="none"><path fill="url(#a)" d="M30.513 18.712c-3.436 1.862-6.463 3.936-8.82 6.903-1.192 1.49-2.172 1.304-2.966-.298-.372-.733-.322-1.105.521-1.664 2.01-1.328 3.45-3.277 4.653-5.363.558-.98.992-2.036 1.439-3.067.136-.335.273-.807-.05-1.067-.372-.31-.694.086-.992.285-.385.26-.794.51-1.08.857-2.183 2.719-3.982 5.698-5.967 8.554-2.432 3.489-3.077 7.56-3.71 11.633-.099.608-.012 1.39-.831 1.502-.831.112-1.315-.534-1.6-1.192-.521-1.254-.286-2.557-.112-3.848.422-3.092 1.625-5.972 2.394-8.964.05-.199.112-.397.273-.944-.98 1.242-1.7 2.223-2.493 3.154-.67.77-1.44 1.514-2.581 1.192-1.154-.323-1.538-1.341-1.836-2.372-.385-1.328 0-2.62.198-3.96a28.608 28.608 0 0 1-2.866 3.787c-.756.831-1.65 1.44-2.766.993C.217 24.386-.044 23.306.006 22.2.167 18.836 1.135 15.83 4 13.77c1.526-1.105 2.717-.783 3.523.956.36.757.558 1.018 1.266.335.583-.559 1.327-.733 2.047-.137.732.621.794 1.39.322 2.148-1.141 1.813-1.178 3.911-1.625 5.91-.075.31-.211.732.21.881.36.124.621-.223.832-.459 1.24-1.428 2.258-3.03 3.263-4.619a7.632 7.632 0 0 1 1.538-1.763c.968-.831 1.092-2.222 1.266-3.45.124-.944.186-1.876 1.414-1.776 1.104.087 1.489.906 1.514 1.961.025 1.18-.57 2.173-.906 3.253-.434 1.39-.955 2.756-1.526 4.395.683-.372.856-.844 1.092-1.229 1.538-2.458 3.09-4.904 4.876-7.188.31-.398.62-.795.992-1.143 1.353-1.266 2.755-.956 3.474.77.534 1.279.695 2.582.161 3.91-.297.733-.546 1.478-.905 2.447 1.377-.633 2.568-1.18 3.747-1.738.347-.162.396-.51.47-.845.832-4.146 2.47-8.008 4.182-11.831a14.67 14.67 0 0 1 1.96-3.216C38.255.027 39.57-.333 40.712.313c1.34.757 2.06 2.445 1.575 3.885-.26.783-.608 1.59-1.08 2.26-2.145 3.054-3.82 6.431-6.339 9.225-1.005 1.117-1.03 2.62-1.427 3.985.559-1.03 1.241-1.95 1.899-2.893 1.327-1.9 2.766-3.7 4.788-4.929.435-.26.881-.484 1.39-.558.868-.124 1.576.136 2.072.881.459.708.447 1.415.037 2.136-.806 1.39-2.047 2.321-3.374 3.128-.82.51-1.663.993-2.544 1.378-.843.36-.992.919-.806 1.714.496 2.21 1.75 2.57 3.573 1.254 1.625-1.168 2.915-2.608 4.169-4.122.26-.323.595-.894 1.104-.485.421.336.248.882-.05 1.254-1.849 2.397-3.821 4.681-6.6 6.06-1.514.744-2.084.595-3.176-.646-.608-.696-1.03-1.515-1.452-2.496a12.674 12.674 0 0 0-1.6 2.632c-.373.807-.968 1.167-1.824.944-.819-.211-1.253-.77-1.29-1.64-.112-1.539.496-2.954.756-4.568Zm5.05-6.295c1.451-1.887 2.791-3.873 3.896-6.009.57-1.105.992-2.296 1.463-3.451.162-.385.112-.77-.272-.993-.373-.224-.633.074-.856.31a5.369 5.369 0 0 0-.62.782c-1.825 2.856-2.73 6.071-3.611 9.361ZM2.983 22.5c1.24-1.267 2.01-2.558 2.953-3.725.844-1.043.844-2.073.496-3.265-.26-.894-.72-.745-1.116-.224a6.639 6.639 0 0 0-1.042 1.85C3.69 18.8 2.648 20.351 2.984 22.5Z"/><defs><linearGradient id="a" x1="23" x2="30.5" y1="0" y2="44.5" gradientUnits="userSpaceOnUse"><stop stop-color="#fff"/><stop offset="1" stop-color="#999"/></linearGradient></defs></svg>