<svg xmlns="http://www.w3.org/2000/svg" width="194" height="18" fill="none"><path fill="#fff" d="M9.26 17.74H1.905v-4.175H8.61c.73 0 1.252-.121 1.565-.365.33-.243.496-.6.496-1.07 0-.33-.07-.6-.21-.808-.138-.209-.364-.365-.677-.47-.296-.104-.687-.156-1.174-.156H1.904V7.043h6.313c.383 0 .705-.043.966-.13.26-.087.46-.226.6-.417.139-.192.208-.435.208-.73 0-.314-.07-.566-.208-.757a1.121 1.121 0 0 0-.6-.444c-.261-.087-.583-.13-.966-.13H1.904V.26H9.34c1.426 0 2.54.209 3.34.626.817.4 1.4.94 1.747 1.617.348.679.522 1.409.522 2.192 0 .939-.2 1.687-.6 2.243-.4.557-.913.974-1.54 1.252a7.025 7.025 0 0 1-2.034.548c-.713.087-1.391.13-2.035.13 1.67 0 2.991.183 3.965.548.992.366 1.696.879 2.113 1.54.435.66.653 1.434.653 2.321 0 1.148-.261 2.044-.783 2.687-.522.644-1.252 1.105-2.191 1.383-.922.26-2 .391-3.235.391zm-4.564 0H0V.26h4.696v17.48zm20.043.26c-2.54 0-4.479-.652-5.818-1.956-1.339-1.305-2.008-3.374-2.008-6.21V.262h4.695v9.626c0 1.235.27 2.14.81 2.713.538.556 1.32.835 2.347.835 1.06 0 1.852-.279 2.374-.835.521-.574.782-1.478.782-2.713V.261h4.696v9.574c0 2.835-.66 4.904-1.983 6.209C29.313 17.348 27.347 18 24.74 18zm15.037-.26H35.08V.26h4.696l5.139 7.88 1.46 2.738-.339-5.139V.261h4.696v17.478h-4.54l-5.32-7.852L39.357 7.2l.418 5.66v4.88zm21.592.208c-1.86 0-3.469-.4-4.826-1.2a8.28 8.28 0 0 1-3.104-3.235c-.713-1.357-1.07-2.87-1.07-4.54 0-1.686.357-3.2 1.07-4.538A8.28 8.28 0 0 1 56.542 1.2C57.9.4 59.508 0 61.368 0c1.253 0 2.383.191 3.392.574a7.854 7.854 0 0 1 2.635 1.565 8.587 8.587 0 0 1 1.878 2.374L65.36 7.878a4.971 4.971 0 0 0-.783-1.617 4.087 4.087 0 0 0-1.33-1.226c-.54-.33-1.183-.496-1.93-.496-.8 0-1.496.191-2.088.574-.573.365-1.017.878-1.33 1.54-.296.66-.444 1.434-.444 2.32 0 .87.148 1.644.444 2.323.313.66.757 1.182 1.33 1.565.592.365 1.287.548 2.087.548.748 0 1.392-.157 1.93-.47.54-.33.983-.748 1.331-1.252.365-.522.626-1.06.783-1.617l3.913 3.365a8.588 8.588 0 0 1-1.878 2.374A8.21 8.21 0 0 1 64.76 17.4c-1.009.365-2.14.548-3.392.548zm16.967 0c-1.322 0-2.539-.226-3.652-.678a8.645 8.645 0 0 1-4.696-4.774 9.46 9.46 0 0 1-.652-3.522c0-1.252.218-2.417.652-3.496a8.58 8.58 0 0 1 1.853-2.87A8.429 8.429 0 0 1 74.683.705C75.796.234 77.013 0 78.335 0c1.34 0 2.557.235 3.652.704a8.429 8.429 0 0 1 2.844 1.905 8.58 8.58 0 0 1 1.852 2.87c.435 1.078.652 2.243.652 3.495a9.46 9.46 0 0 1-.652 3.522 8.645 8.645 0 0 1-4.696 4.774c-1.095.452-2.313.678-3.652.678zm0-4.565c.905 0 1.652-.192 2.244-.574a3.494 3.494 0 0 0 1.356-1.566c.296-.678.444-1.434.444-2.27 0-.851-.148-1.608-.444-2.269A3.493 3.493 0 0 0 80.58 5.14c-.592-.382-1.34-.574-2.244-.574-.904 0-1.66.192-2.27.574a3.545 3.545 0 0 0-1.33 1.565c-.295.661-.443 1.418-.443 2.27 0 .835.148 1.591.443 2.27a3.56 3.56 0 0 0 1.33 1.565c.61.382 1.366.574 2.27.574zm24.396 4.357h-7.357v-4.175h6.704c.731 0 1.253-.121 1.566-.365.33-.243.495-.6.495-1.07 0-.33-.069-.6-.208-.808-.139-.209-.366-.365-.679-.47-.295-.104-.687-.156-1.174-.156h-6.704V7.043h6.313c.383 0 .705-.043.965-.13.261-.087.461-.226.6-.417.14-.192.209-.435.209-.73 0-.314-.069-.566-.209-.757a1.12 1.12 0 0 0-.6-.444c-.26-.087-.582-.13-.965-.13h-6.313V.26h7.435c1.426 0 2.539.209 3.339.626.817.4 1.4.94 1.748 1.617.348.679.522 1.409.522 2.192 0 .939-.2 1.687-.6 2.243-.4.557-.913.974-1.54 1.252a7.022 7.022 0 0 1-2.034.548c-.713.087-1.392.13-2.035.13 1.669 0 2.991.183 3.965.548.991.366 1.696.879 2.113 1.54.435.66.652 1.434.652 2.321 0 1.148-.261 2.044-.782 2.687-.522.644-1.252 1.105-2.192 1.383-.921.26-2 .391-3.234.391zm-4.566 0H93.47V.26h4.695v17.48zm15.654 0h-5.009L114.993.26h6.548l6.182 17.48h-5.139l-3.209-9.731-1.174-4.383-1.173 4.383-3.209 9.73zm9-3.262h-10.174v-3.913h10.174v3.913zm10.044 3.262h-4.696V.26h4.696v4.566l-.13 3.078 2.295-3.078 3.731-4.565h5.4L136.437 9.6l-.678.417-2.896 3.313v4.41zm11.426 0h-5.243l-5.009-9.34 3.887-2.426 6.365 11.765zm5.847 0h-4.696V.26h4.696v17.48zm8.686 0h-11.739v-4.175h11.739v4.174zm-1.304-6.653h-10.435V6.913h10.435v4.174zm1.304-6.652h-11.739V.26h11.739v4.174zm10.153 7.043h-6.626V7.722h6.522c.452 0 .817-.061 1.096-.183.295-.122.513-.304.652-.548.156-.26.235-.565.235-.913 0-.365-.079-.67-.235-.913a1.284 1.284 0 0 0-.652-.548c-.279-.121-.644-.182-1.096-.182h-6.522V.26h6.47c1.356 0 2.556.191 3.6.574 1.061.365 1.887.956 2.478 1.774.609.8.913 1.843.913 3.13 0 1.304-.313 2.348-.939 3.13-.609.766-1.435 1.305-2.478 1.618-1.026.313-2.165.452-3.418.417v.574zm-3.834 6.261h-4.696V.261h4.696v17.478zm11.4 0h-5.348l-2.896-4.67c-.348-.573-.722-.982-1.122-1.226-.4-.243-.956-.365-1.669-.365l3.991-.782c.87.07 1.574.252 2.113.547.539.279.991.635 1.357 1.07.365.435.721.93 1.069 1.487l2.505 3.94zm9.924-4.982h-3.992L175.378.26h5.948l1.695 3.86 1.539 4.018 1.539-4.017L187.821.26h5.792l-7.148 12.496zm.339 4.982h-4.696v-7.8h4.696v7.8z" opacity=".6"/></svg>