<svg xmlns="http://www.w3.org/2000/svg" width="179" height="24" fill="none"><path fill="#fff" d="M0 19.304V1.963h8.02c2.071 0 3.62.433 4.648 1.3 1.036.867 1.554 2.156 1.554 3.866 0 1.694-.55 2.978-1.65 3.853-1.1.868-2.766 1.301-4.997 1.301H3.72v7.02H0zm3.721-9.9h4.07c.883 0 1.558-.196 2.023-.59.466-.4.699-.959.699-1.673 0-.666-.225-1.212-.675-1.638-.441-.433-1.144-.65-2.107-.65h-4.01v4.552zm16.016 10.213c-.827 0-1.59-.145-2.288-.434a3.979 3.979 0 0 1-1.686-1.313c-.417-.578-.626-1.3-.626-2.167 0-.931.269-1.722.807-2.372.538-.65 1.32-1.144 2.348-1.481 1.028-.346 2.268-.518 3.721-.518h1.83l-.216.325v-.747c0-.859-.157-1.497-.47-1.915-.313-.425-.83-.638-1.553-.638-.69 0-1.22.185-1.59.554-.361.361-.582.88-.662 1.554l-3.661-.627a4.23 4.23 0 0 1 .927-1.95c.49-.586 1.164-1.052 2.023-1.397.86-.345 1.915-.518 3.167-.518 1.148 0 2.12.185 2.915.554.794.361 1.396.951 1.806 1.77.417.819.626 1.915.626 3.287v4.42c0 .273.036.454.108.542.08.088.245.132.494.132h.59v2.626h-1.71c-.939 0-1.654-.233-2.143-.699-.482-.474-.723-1.152-.723-2.035v-.614l.626.24a6.78 6.78 0 0 1-.457 1.109 4.33 4.33 0 0 1-.843 1.12c-.353.345-.803.63-1.349.854-.546.225-1.216.338-2.01.338zm1.036-2.457c.562 0 1.06-.128 1.493-.385.434-.257.775-.642 1.024-1.156.248-.522.373-1.168.373-1.94v-.276h-1.518c-.858 0-1.529.112-2.01.337-.474.225-.807.502-1 .831-.193.321-.289.634-.289.94 0 .24.056.489.169.746.12.257.317.474.59.65.28.169.67.253 1.168.253zM30.792 24V6.298h3.396v2.613l-.037-.192c.45-.948 1.048-1.638 1.795-2.072.755-.441 1.597-.662 2.529-.662 1.091 0 2.035.273 2.83.819.802.538 1.42 1.32 1.854 2.348.434 1.02.65 2.244.65 3.673 0 1.429-.22 2.653-.662 3.673-.433 1.011-1.056 1.786-1.866 2.324-.803.53-1.759.795-2.867.795-.963 0-1.822-.221-2.577-.663-.746-.45-1.352-1.176-1.818-2.18l.337-.023V24h-3.564zm6.346-7.093c.875 0 1.574-.365 2.095-1.096.522-.738.783-1.758.783-3.058 0-1.285-.257-2.28-.77-2.987-.506-.714-1.2-1.072-2.084-1.072a2.67 2.67 0 0 0-1.505.446c-.442.297-.795.75-1.06 1.36-.257.603-.385 1.361-.385 2.277 0 1.373.28 2.404.843 3.095.562.69 1.256 1.035 2.083 1.035zm9.164 2.397V6.298h3.468v2.926l-.144-.385c.41-.963.987-1.678 1.734-2.144a4.475 4.475 0 0 1 2.444-.71c.25 0 .502.02.759.06.257.04.514.109.77.205l-.276 3.059a5.635 5.635 0 0 0-1.506-.217 4.13 4.13 0 0 0-1.24.205 3.155 3.155 0 0 0-1.192.722c-.361.337-.658.819-.891 1.445-.225.618-.337 1.41-.337 2.372v5.468h-3.589zm11.091 0V6.298h3.588v13.006h-3.588zm1.794-14.56c-.714 0-1.288-.216-1.722-.65-.433-.433-.65-1.007-.65-1.722 0-.722.217-1.296.65-1.722C57.9.217 58.473 0 59.187 0c.723 0 1.297.217 1.722.65.434.426.65 1 .65 1.722 0 .715-.216 1.289-.65 1.722-.425.434-1 .65-1.722.65zm5.214 14.56V1.24h3.589v10.068l5.022-5.01h4.094l-4.89 4.865 5.083 8.14h-4.01l-3.48-5.66-1.819 1.807v3.854h-3.589zm18.413.313c-.827 0-1.59-.145-2.288-.434a3.979 3.979 0 0 1-1.686-1.313c-.418-.578-.626-1.3-.626-2.167 0-.931.269-1.722.807-2.372.537-.65 1.32-1.144 2.348-1.481 1.027-.346 2.268-.518 3.72-.518h1.831l-.216.325v-.747c0-.859-.157-1.497-.47-1.915-.313-.425-.831-.638-1.554-.638-.69 0-1.22.185-1.59.554-.36.361-.581.88-.662 1.554l-3.66-.627a4.23 4.23 0 0 1 .927-1.95c.49-.586 1.164-1.052 2.023-1.397.86-.345 1.915-.518 3.167-.518 1.148 0 2.12.185 2.914.554.795.361 1.397.951 1.807 1.77.417.819.626 1.915.626 3.287v4.42c0 .273.036.454.108.542.08.088.245.132.494.132h.59v2.626h-1.71c-.94 0-1.654-.233-2.144-.699-.481-.474-.722-1.152-.722-2.035v-.614l.626.24a6.78 6.78 0 0 1-.457 1.109 4.353 4.353 0 0 1-.843 1.12c-.354.345-.803.63-1.35.854-.545.225-1.215.338-2.01.338zm1.036-2.457c.562 0 1.06-.128 1.493-.385.433-.257.775-.642 1.023-1.156.25-.522.374-1.168.374-1.94v-.276h-1.518c-.859 0-1.529.112-2.01.337-.474.225-.808.502-1 .831-.193.321-.29.634-.29.94 0 .24.057.489.17.746.12.257.317.474.59.65.28.169.67.253 1.168.253zm15.185 2.144V1.963h8.02c2.071 0 3.62.433 4.648 1.3 1.036.867 1.553 2.156 1.553 3.866 0 1.694-.549 2.978-1.649 3.853-1.1.868-2.766 1.301-4.998 1.301h-3.853v7.02h-3.721zm3.721-9.9h4.07c.883 0 1.557-.196 2.023-.59.466-.4.698-.959.698-1.673 0-.666-.224-1.212-.674-1.638-.441-.433-1.144-.65-2.107-.65h-4.01v4.552zm16.016 10.213c-.827 0-1.59-.145-2.288-.434a3.973 3.973 0 0 1-1.686-1.313c-.418-.578-.626-1.3-.626-2.167 0-.931.269-1.722.806-2.372.538-.65 1.321-1.144 2.349-1.481 1.027-.346 2.268-.518 3.721-.518h1.83l-.217.325v-.747c0-.859-.156-1.497-.469-1.915-.313-.425-.831-.638-1.554-.638-.69 0-1.22.185-1.589.554-.362.361-.582.88-.663 1.554l-3.66-.627a4.222 4.222 0 0 1 .927-1.95c.49-.586 1.164-1.052 2.023-1.397.859-.345 1.915-.518 3.167-.518 1.148 0 2.119.185 2.914.554.795.361 1.397.951 1.807 1.77.417.819.626 1.915.626 3.287v4.42c0 .273.036.454.108.542.08.088.245.132.494.132h.59v2.626h-1.71c-.939 0-1.654-.233-2.144-.699-.481-.474-.722-1.152-.722-2.035v-.614l.626.24a6.722 6.722 0 0 1-.458 1.109c-.2.393-.481.766-.842 1.12-.354.345-.803.63-1.349.854-.546.225-1.216.338-2.011.338zm1.035-2.457c.562 0 1.06-.128 1.494-.385.433-.257.774-.642 1.023-1.156.249-.522.374-1.168.374-1.94v-.276h-1.518c-.859 0-1.529.112-2.011.337-.474.225-.807.502-.999.831-.193.321-.289.634-.289.94 0 .24.056.489.168.746.121.257.317.474.59.65.281.169.671.253 1.168.253zm9.995 2.144V6.298h3.469v2.926l-.145-.385c.409-.963.987-1.678 1.734-2.144a4.478 4.478 0 0 1 2.445-.71c.249 0 .501.02.758.06.257.04.514.109.771.205l-.277 3.059a5.638 5.638 0 0 0-1.505-.217c-.394 0-.807.068-1.241.205a3.164 3.164 0 0 0-1.192.722c-.361.337-.658.819-.891 1.445-.225.618-.337 1.41-.337 2.372v5.468h-3.589zm12.043 0V4.359c0-1.076.272-1.862.818-2.36.546-.506 1.429-.759 2.65-.759h2.577v2.626h-1.819c-.249 0-.417.048-.505.144-.089.096-.133.273-.133.53v14.764h-3.588zm-1.723-10.38V6.297h7.756v2.625h-7.756zm13.5 10.693c-.827 0-1.59-.145-2.288-.434a3.973 3.973 0 0 1-1.686-1.313c-.418-.578-.626-1.3-.626-2.167 0-.931.269-1.722.806-2.372.538-.65 1.321-1.144 2.349-1.481 1.027-.346 2.268-.518 3.721-.518h1.83l-.217.325v-.747c0-.859-.156-1.497-.469-1.915-.313-.425-.831-.638-1.554-.638-.69 0-1.22.185-1.589.554-.362.361-.582.88-.663 1.554l-3.66-.627a4.222 4.222 0 0 1 .927-1.95c.49-.586 1.164-1.052 2.023-1.397.859-.345 1.915-.518 3.167-.518 1.148 0 2.119.185 2.914.554.795.361 1.397.951 1.807 1.77.417.819.626 1.915.626 3.287v4.42c0 .273.036.454.108.542.08.088.245.132.494.132h.59v2.626h-1.71c-.939 0-1.654-.233-2.144-.699-.481-.474-.722-1.152-.722-2.035v-.614l.626.24a6.722 6.722 0 0 1-.458 1.109c-.2.393-.481.766-.842 1.12-.354.345-.803.63-1.349.854-.546.225-1.216.338-2.011.338zm1.035-2.457c.562 0 1.06-.128 1.494-.385.433-.257.774-.642 1.023-1.156.249-.522.373-1.168.373-1.94v-.276h-1.517c-.859 0-1.529.112-2.011.337-.474.225-.807.502-.999.831-.193.321-.289.634-.289.94 0 .24.056.489.168.746.121.257.317.474.59.65.281.169.671.253 1.168.253zm10.007 2.144V6.298h3.589v13.006h-3.589zm1.795-14.56c-.715 0-1.289-.216-1.722-.65-.434-.433-.651-1.007-.651-1.722 0-.722.217-1.296.651-1.722.433-.433 1.007-.65 1.722-.65.722 0 1.296.217 1.722.65.433.426.65 1 .65 1.722 0 .715-.217 1.289-.65 1.722-.426.434-1 .65-1.722.65zm8.947 14.56c-.963 0-1.706-.233-2.228-.699-.514-.474-.77-1.152-.77-2.035V8.923h-1.855V6.298h1.855V3.745l3.588-.867v3.42h2.409v2.625h-2.409v7.081c0 .265.036.446.108.542.081.088.245.132.494.132h1.987v2.626h-3.179z" opacity=".6"/></svg>