<svg xmlns="http://www.w3.org/2000/svg" width="237" height="244" fill="none"><g filter="url(#a)"><path fill="url(#b)" d="M118.318 161.548a39.625 39.625 0 0 1-28.062-11.659 39.874 39.874 0 0 1-11.624-28.149 39.873 39.873 0 0 1 11.624-28.15 39.624 39.624 0 0 1 28.062-11.66 39.625 39.625 0 0 1 28.062 11.66 39.874 39.874 0 0 1 11.623 28.15 39.875 39.875 0 0 1-11.623 28.149 39.627 39.627 0 0 1-28.062 11.659zm84.246-28.776c.454-3.639.794-7.279.794-11.032 0-3.754-.34-7.507-.794-11.374l23.925-18.54c2.154-1.706 2.721-4.777 1.361-7.28l-22.678-39.353c-1.36-2.502-4.422-3.526-6.916-2.502l-28.234 11.373c-5.896-4.435-12.019-8.303-19.162-11.146l-4.195-30.14a5.762 5.762 0 0 0-1.964-3.43A5.728 5.728 0 0 0 140.995 8H95.64c-2.834 0-5.215 2.047-5.669 4.777l-4.195 30.141c-7.144 2.843-13.266 6.71-19.162 11.147L38.38 42.69c-2.494-1.024-5.556 0-6.917 2.502L8.787 84.547c-1.474 2.502-.794 5.573 1.36 7.279l23.925 18.54c-.453 3.867-.793 7.62-.793 11.374 0 3.753.34 7.393.793 11.032l-23.924 18.881c-2.155 1.706-2.835 4.777-1.36 7.279l22.676 39.354c1.361 2.502 4.423 3.412 6.917 2.502l28.233-11.487c5.897 4.549 12.02 8.417 19.163 11.26l4.195 30.141c.454 2.73 2.835 4.777 5.67 4.777h45.354c2.835 0 5.216-2.047 5.67-4.777l4.195-30.141c7.143-2.957 13.266-6.711 19.162-11.26l28.234 11.487c2.494.91 5.556 0 6.916-2.502l22.678-39.354c1.36-2.502.793-5.573-1.361-7.279l-23.925-18.881z"/></g><defs><radialGradient id="b" cx="0" cy="0" r="1" gradientTransform="matrix(0 113.74 -110.293 0 118.293 121.74)" gradientUnits="userSpaceOnUse"><stop stop-color="#FFDCEA"/><stop offset=".37" stop-color="#FEEAF1"/><stop offset=".604" stop-color="#fff"/><stop offset=".649" stop-color="#FEE9F1"/><stop offset=".714" stop-color="#FFEBF3"/><stop offset=".844" stop-color="#FBF0F5"/><stop offset="1" stop-color="#fff"/></radialGradient><filter id="a" width="236.585" height="243.479" x="0" y="0" color-interpolation-filters="sRGB" filterUnits="userSpaceOnUse"><feFlood flood-opacity="0" result="BackgroundImageFix"/><feColorMatrix in="SourceAlpha" result="hardAlpha" values="0 0 0 0 0 0 0 0 0 0 0 0 0 0 0 0 0 0 127 0"/><feOffset/><feGaussianBlur stdDeviation="4"/><feComposite in2="hardAlpha" operator="out"/><feColorMatrix values="0 0 0 0 0.419445 0 0 0 0 0 0 0 0 0 0.2265 0 0 0 0.3 0"/><feBlend in2="BackgroundImageFix" result="effect1_dropShadow_5027_119"/><feBlend in="SourceGraphic" in2="effect1_dropShadow_5027_119" result="shape"/></filter></defs></svg>