<svg xmlns="http://www.w3.org/2000/svg" width="48" height="48" fill="none"><path fill="#1E1E1E" d="M48 24C48 10.745 37.255 0 24 0S0 10.745 0 24s10.745 24 24 24 24-10.745 24-24z"/><path fill="#1E1E1E" d="M33.391 18.783c0-5.475-4.438-9.913-9.913-9.913-5.475 0-9.913 4.438-9.913 9.913v9.913c0 5.474 4.438 9.913 9.913 9.913 5.475 0 9.913-4.439 9.913-9.913v-9.913z"/><path fill="#1ABCFE" d="M23.478 23.74a4.957 4.957 0 1 1 9.914 0 4.957 4.957 0 0 1-9.914 0z"/><path fill="#0ACF83" d="M13.565 33.652a4.956 4.956 0 0 1 4.957-4.956h4.956v4.956a4.957 4.957 0 0 1-9.913 0z"/><path fill="#FF7262" d="M23.478 8.87v9.913h4.957a4.957 4.957 0 0 0 0-9.913h-4.957z"/><path fill="#F24E1E" d="M13.565 13.826a4.956 4.956 0 0 0 4.957 4.957h4.956V8.87h-4.956a4.956 4.956 0 0 0-4.957 4.956z"/><path fill="#A259FF" d="M13.565 23.74a4.956 4.956 0 0 0 4.957 4.956h4.956v-9.913h-4.956a4.956 4.956 0 0 0-4.957 4.956z"/></svg>