<svg xmlns="http://www.w3.org/2000/svg" width="568" height="408" fill="none"><path fill="url(#a)" fill-rule="evenodd" d="M340.6 22.705a22.686 22.686 0 0 1 6.661-16.055A22.756 22.756 0 0 1 363.34 0h181.92a22.76 22.76 0 0 1 16.08 6.65A22.689 22.689 0 0 1 568 22.705v181.637a22.69 22.69 0 0 1-6.66 16.055 22.76 22.76 0 0 1-16.08 6.65 22.76 22.76 0 0 1-16.08-6.65 22.69 22.69 0 0 1-6.66-16.055V86.278L358.201 286.85a22.718 22.718 0 0 1-7.349 5.883 22.782 22.782 0 0 1-18.406.919 22.747 22.747 0 0 1-7.9-5.121L206.889 171.057 40.615 399.331a22.767 22.767 0 0 1-31.255 4.322 22.7 22.7 0 0 1-9.013-14.405 22.676 22.676 0 0 1 3.52-16.618l181.92-249.752a22.729 22.729 0 0 1 7.282-6.467 22.764 22.764 0 0 1 27.191 3.742l118.658 118.519L497.279 45.409H363.34a22.756 22.756 0 0 1-16.079-6.65 22.686 22.686 0 0 1-6.661-16.054z" clip-rule="evenodd"/><path stroke="#00FFCE" stroke-opacity=".5" d="M523.02 86.278v-1.4l-.887 1.083-164.318 200.573a22.266 22.266 0 0 1-32.916 1.643L207.243 170.704l-.414-.413-.344.472L40.222 399.021l-.006.008a22.268 22.268 0 0 1-30.562 4.22A22.2 22.2 0 0 1 .84 389.16a22.175 22.175 0 0 1 3.437-16.243l.005-.008L186.19 123.172a22.227 22.227 0 0 1 7.123-6.325 22.264 22.264 0 0 1 18.563-1.467 22.257 22.257 0 0 1 8.03 5.127l118.657 118.519.391.39.349-.427L497.665 45.726l.67-.817H363.34a22.259 22.259 0 0 1-15.726-6.503 22.186 22.186 0 0 1-6.514-15.701 22.186 22.186 0 0 1 6.514-15.701A22.259 22.259 0 0 1 363.34.5h181.92c5.899 0 11.556 2.34 15.726 6.504a22.186 22.186 0 0 1 6.514 15.7v181.638a22.186 22.186 0 0 1-6.514 15.701 22.252 22.252 0 0 1-15.726 6.504 22.252 22.252 0 0 1-15.726-6.504 22.186 22.186 0 0 1-6.514-15.701V86.278z"/><defs><linearGradient id="a" x1="568" x2="173.775" y1="-10.432" y2="486.277" gradientUnits="userSpaceOnUse"><stop offset=".602" stop-color="#fff"/><stop offset="1" stop-color="#08826A"/></linearGradient></defs></svg>