<svg xmlns="http://www.w3.org/2000/svg" width="1200" height="1045" fill="none"><g clip-path="url(#a)"><path fill="#1A1A1A" d="M0 0h1200v1045H0z"/><path fill="url(#b)" fill-opacity=".3" d="M1345 1361.7h1440v1444H1345z" opacity=".1" transform="rotate(180 1345 1361.7)"/><g opacity=".4"><mask id="d" width="1200" height="1045" x="0" y="0" maskUnits="userSpaceOnUse" style="mask-type:alpha"><path fill="url(#c)" d="M0 0h1200v1045H0z"/></mask><g fill="#fff" mask="url(#d)" opacity=".3" style="mix-blend-mode:lighten"><mask id="e"><path d="M1345 1269h-59.56v-59.73H1345V1269zm-59.56 0h-59.56v-59.73h59.56V1269zm-59.56 0h-59.56v-59.73h59.56V1269zm-59.56 0h-59.56v-59.73h59.56V1269zm-59.56 0h-59.56v-59.73h59.56V1269zm-59.56 0h-59.56v-59.73h59.56V1269zm-59.56 0h-59.56v-59.73h59.56V1269zm-59.56 0h-59.56v-59.73h59.56V1269zm-59.56 0h-59.56v-59.73h59.56V1269zm-59.56 0H749.4v-59.73h59.56V1269zm-59.56 0h-59.56v-59.73h59.56V1269zm-59.56 0h-59.56v-59.73h59.56V1269zm-59.56 0h-59.56v-59.73h59.56V1269zm-59.56 0h-59.56v-59.73h59.56V1269zm-59.56 0H451.6v-59.73h59.56V1269zm-59.56 0h-59.56v-59.73h59.56V1269zm-59.56 0h-59.56v-59.73h59.56V1269zm-59.56 0h-59.56v-59.73h59.56V1269zm-59.56 0h-59.56v-59.73h59.56V1269zm-59.56 0H153.8v-59.73h59.56V1269zm-59.56 0H94.24v-59.73h59.56V1269z"/><path d="M94.24 1269H34.68v-59.73h59.56V1269zm-59.56 0h-59.56v-59.73h59.56V1269z"/><path d="M-24.88 1269h-59.56v-59.73h59.56V1269zm-59.56 0H-144v-59.73h59.56V1269zM1345 1209.27h-59.56v-59.72H1345v59.72zm-59.56 0h-59.56v-59.72h59.56v59.72zm-59.56 0h-59.56v-59.72h59.56v59.72zm-59.56 0h-59.56v-59.72h59.56v59.72zm-59.56 0h-59.56v-59.72h59.56v59.72zm-59.56 0h-59.56v-59.72h59.56v59.72zm-59.56 0h-59.56v-59.72h59.56v59.72zm-59.56 0h-59.56v-59.72h59.56v59.72zm-59.56 0h-59.56v-59.72h59.56v59.72zm-59.56 0H749.4v-59.72h59.56v59.72zm-59.56 0h-59.56v-59.72h59.56v59.72zm-59.56 0h-59.56v-59.72h59.56v59.72zm-59.56 0h-59.56v-59.72h59.56v59.72zm-59.56 0h-59.56v-59.72h59.56v59.72zm-59.56 0H451.6v-59.72h59.56v59.72zm-59.56 0h-59.56v-59.72h59.56v59.72zm-59.56 0h-59.56v-59.72h59.56v59.72zm-59.56 0h-59.56v-59.72h59.56v59.72zm-59.56 0h-59.56v-59.72h59.56v59.72zm-59.56 0H153.8v-59.72h59.56v59.72zm-59.56 0H94.24v-59.72h59.56v59.72z"/><path d="M94.24 1209.27H34.68v-59.72h59.56v59.72zm-59.56 0h-59.56v-59.72h59.56v59.72z"/><path d="M-24.88 1209.27h-59.56v-59.72h59.56v59.72zm-59.56 0H-144v-59.72h59.56v59.72zM1345 1149.55h-59.56v-59.73H1345v59.73zm-59.56 0h-59.56v-59.73h59.56v59.73zm-59.56 0h-59.56v-59.73h59.56v59.73zm-59.56 0h-59.56v-59.73h59.56v59.73zm-59.56 0h-59.56v-59.73h59.56v59.73zm-59.56 0h-59.56v-59.73h59.56v59.73zm-59.56 0h-59.56v-59.73h59.56v59.73zm-59.56 0h-59.56v-59.73h59.56v59.73zm-59.56 0h-59.56v-59.73h59.56v59.73zm-59.56 0H749.4v-59.73h59.56v59.73zm-59.56 0h-59.56v-59.73h59.56v59.73zm-59.56 0h-59.56v-59.73h59.56v59.73zm-59.56 0h-59.56v-59.73h59.56v59.73zm-59.56 0h-59.56v-59.73h59.56v59.73zm-59.56 0H451.6v-59.73h59.56v59.73zm-59.56 0h-59.56v-59.73h59.56v59.73zm-59.56 0h-59.56v-59.73h59.56v59.73zm-59.56 0h-59.56v-59.73h59.56v59.73zm-59.56 0h-59.56v-59.73h59.56v59.73zm-59.56 0H153.8v-59.73h59.56v59.73zm-59.56 0H94.24v-59.73h59.56v59.73z"/><path d="M94.24 1149.55H34.68v-59.73h59.56v59.73zm-59.56 0h-59.56v-59.73h59.56v59.73z"/><path d="M-24.88 1149.55h-59.56v-59.73h59.56v59.73zm-59.56 0H-144v-59.73h59.56v59.73zM1345 1089.82h-59.56v-59.72H1345v59.72zm-59.56 0h-59.56v-59.72h59.56v59.72zm-59.56 0h-59.56v-59.72h59.56v59.72zm-59.56 0h-59.56v-59.72h59.56v59.72zm-59.56 0h-59.56v-59.72h59.56v59.72zm-59.56 0h-59.56v-59.72h59.56v59.72zm-59.56 0h-59.56v-59.72h59.56v59.72zm-59.56 0h-59.56v-59.72h59.56v59.72zm-59.56 0h-59.56v-59.72h59.56v59.72zm-59.56 0H749.4v-59.72h59.56v59.72zm-59.56 0h-59.56v-59.72h59.56v59.72zm-59.56 0h-59.56v-59.72h59.56v59.72zm-59.56 0h-59.56v-59.72h59.56v59.72zm-59.56 0h-59.56v-59.72h59.56v59.72zm-59.56 0H451.6v-59.72h59.56v59.72zm-59.56 0h-59.56v-59.72h59.56v59.72zm-59.56 0h-59.56v-59.72h59.56v59.72zm-59.56 0h-59.56v-59.72h59.56v59.72zm-59.56 0h-59.56v-59.72h59.56v59.72zm-59.56 0H153.8v-59.72h59.56v59.72zm-59.56 0H94.24v-59.72h59.56v59.72z"/><path d="M94.24 1089.82H34.68v-59.72h59.56v59.72zm-59.56 0h-59.56v-59.72h59.56v59.72z"/><path d="M-24.88 1089.82h-59.56v-59.72h59.56v59.72zm-59.56 0H-144v-59.72h59.56v59.72zM1345 1030.1h-59.56v-59.727H1345v59.727zm-59.56 0h-59.56v-59.727h59.56v59.727zm-59.56 0h-59.56v-59.727h59.56v59.727zm-59.56 0h-59.56v-59.727h59.56v59.727zm-59.56 0h-59.56v-59.727h59.56v59.727zm-59.56 0h-59.56v-59.727h59.56v59.727zm-59.56 0h-59.56v-59.727h59.56v59.727zm-59.56 0h-59.56v-59.727h59.56v59.727zm-59.56 0h-59.56v-59.727h59.56v59.727zm-59.56 0H749.4v-59.727h59.56v59.727zm-59.56 0h-59.56v-59.727h59.56v59.727zm-59.56 0h-59.56v-59.727h59.56v59.727zm-59.56 0h-59.56v-59.727h59.56v59.727zm-59.56 0h-59.56v-59.727h59.56v59.727zm-59.56 0H451.6v-59.727h59.56v59.727zm-59.56 0h-59.56v-59.727h59.56v59.727zm-59.56 0h-59.56v-59.727h59.56v59.727zm-59.56 0h-59.56v-59.727h59.56v59.727zm-59.56 0h-59.56v-59.727h59.56v59.727zm-59.56 0H153.8v-59.727h59.56v59.727zm-59.56 0H94.24v-59.727h59.56v59.727z"/><path d="M94.24 1030.1H34.68v-59.727h59.56v59.727zm-59.56 0h-59.56v-59.727h59.56v59.727z"/><path d="M-24.88 1030.1h-59.56v-59.727h59.56v59.727zm-59.56 0H-144v-59.727h59.56v59.727zM1345 970.373h-59.56v-59.726H1345v59.726zm-59.56 0h-59.56v-59.726h59.56v59.726zm-59.56 0h-59.56v-59.726h59.56v59.726zm-59.56 0h-59.56v-59.726h59.56v59.726zm-59.56 0h-59.56v-59.726h59.56v59.726zm-59.56 0h-59.56v-59.726h59.56v59.726zm-59.56 0h-59.56v-59.726h59.56v59.726zm-59.56 0h-59.56v-59.726h59.56v59.726zm-59.56 0h-59.56v-59.726h59.56v59.726zm-59.56 0H749.4v-59.726h59.56v59.726zm-59.56 0h-59.56v-59.726h59.56v59.726zm-59.56 0h-59.56v-59.726h59.56v59.726zm-59.56 0h-59.56v-59.726h59.56v59.726zm-59.56 0h-59.56v-59.726h59.56v59.726zm-59.56 0H451.6v-59.726h59.56v59.726zm-59.56 0h-59.56v-59.726h59.56v59.726zm-59.56 0h-59.56v-59.726h59.56v59.726zm-59.56 0h-59.56v-59.726h59.56v59.726zm-59.56 0h-59.56v-59.726h59.56v59.726zm-59.56 0H153.8v-59.726h59.56v59.726zm-59.56 0H94.24v-59.726h59.56v59.726z"/><path d="M94.24 970.373H34.68v-59.726h59.56v59.726zm-59.56 0h-59.56v-59.726h59.56v59.726z"/><path d="M-24.88 970.373h-59.56v-59.726h59.56v59.726zm-59.56 0H-144v-59.726h59.56v59.726zM1345 910.647h-59.56v-59.725H1345v59.725zm-59.56 0h-59.56v-59.725h59.56v59.725zm-59.56 0h-59.56v-59.725h59.56v59.725zm-59.56 0h-59.56v-59.725h59.56v59.725zm-59.56 0h-59.56v-59.725h59.56v59.725zm-59.56 0h-59.56v-59.725h59.56v59.725zm-59.56 0h-59.56v-59.725h59.56v59.725zm-59.56 0h-59.56v-59.725h59.56v59.725zm-59.56 0h-59.56v-59.725h59.56v59.725zm-59.56 0H749.4v-59.725h59.56v59.725zm-59.56 0h-59.56v-59.725h59.56v59.725zm-59.56 0h-59.56v-59.725h59.56v59.725zm-59.56 0h-59.56v-59.725h59.56v59.725zm-59.56 0h-59.56v-59.725h59.56v59.725zm-59.56 0H451.6v-59.725h59.56v59.725zm-59.56 0h-59.56v-59.725h59.56v59.725zm-59.56 0h-59.56v-59.725h59.56v59.725zm-59.56 0h-59.56v-59.725h59.56v59.725zm-59.56 0h-59.56v-59.725h59.56v59.725zm-59.56 0H153.8v-59.725h59.56v59.725zm-59.56 0H94.24v-59.725h59.56v59.725z"/><path d="M94.24 910.647H34.68v-59.725h59.56v59.725zm-59.56 0h-59.56v-59.725h59.56v59.725z"/><path d="M-24.88 910.647h-59.56v-59.725h59.56v59.725zm-59.56 0H-144v-59.725h59.56v59.725zM1345 850.922h-59.56v-59.726H1345v59.726zm-59.56 0h-59.56v-59.726h59.56v59.726zm-59.56 0h-59.56v-59.726h59.56v59.726zm-59.56 0h-59.56v-59.726h59.56v59.726zm-59.56 0h-59.56v-59.726h59.56v59.726zm-59.56 0h-59.56v-59.726h59.56v59.726zm-59.56 0h-59.56v-59.726h59.56v59.726zm-59.56 0h-59.56v-59.726h59.56v59.726zm-59.56 0h-59.56v-59.726h59.56v59.726zm-59.56 0H749.4v-59.726h59.56v59.726zm-59.56 0h-59.56v-59.726h59.56v59.726zm-59.56 0h-59.56v-59.726h59.56v59.726zm-59.56 0h-59.56v-59.726h59.56v59.726zm-59.56 0h-59.56v-59.726h59.56v59.726zm-59.56 0H451.6v-59.726h59.56v59.726zm-59.56 0h-59.56v-59.726h59.56v59.726zm-59.56 0h-59.56v-59.726h59.56v59.726zm-59.56 0h-59.56v-59.726h59.56v59.726zm-59.56 0h-59.56v-59.726h59.56v59.726zm-59.56 0H153.8v-59.726h59.56v59.726zm-59.56 0H94.24v-59.726h59.56v59.726z"/><path d="M94.24 850.922H34.68v-59.726h59.56v59.726zm-59.56 0h-59.56v-59.726h59.56v59.726z"/><path d="M-24.88 850.922h-59.56v-59.726h59.56v59.726zm-59.56 0H-144v-59.726h59.56v59.726zM1345 791.196h-59.56v-59.725H1345v59.725zm-59.56 0h-59.56v-59.725h59.56v59.725zm-59.56 0h-59.56v-59.725h59.56v59.725zm-59.56 0h-59.56v-59.725h59.56v59.725zm-59.56 0h-59.56v-59.725h59.56v59.725zm-59.56 0h-59.56v-59.725h59.56v59.725zm-59.56 0h-59.56v-59.725h59.56v59.725zm-59.56 0h-59.56v-59.725h59.56v59.725zm-59.56 0h-59.56v-59.725h59.56v59.725zm-59.56 0H749.4v-59.725h59.56v59.725zm-59.56 0h-59.56v-59.725h59.56v59.725zm-59.56 0h-59.56v-59.725h59.56v59.725zm-59.56 0h-59.56v-59.725h59.56v59.725zm-59.56 0h-59.56v-59.725h59.56v59.725zm-59.56 0H451.6v-59.725h59.56v59.725zm-59.56 0h-59.56v-59.725h59.56v59.725zm-59.56 0h-59.56v-59.725h59.56v59.725zm-59.56 0h-59.56v-59.725h59.56v59.725zm-59.56 0h-59.56v-59.725h59.56v59.725zm-59.56 0H153.8v-59.725h59.56v59.725zm-59.56 0H94.24v-59.725h59.56v59.725z"/><path d="M94.24 791.196H34.68v-59.725h59.56v59.725zm-59.56 0h-59.56v-59.725h59.56v59.725z"/><path d="M-24.88 791.196h-59.56v-59.725h59.56v59.725zm-59.56 0H-144v-59.725h59.56v59.725zM1345 731.471h-59.56v-59.725H1345v59.725zm-59.56 0h-59.56v-59.725h59.56v59.725zm-59.56 0h-59.56v-59.725h59.56v59.725zm-59.56 0h-59.56v-59.725h59.56v59.725zm-59.56 0h-59.56v-59.725h59.56v59.725zm-59.56 0h-59.56v-59.725h59.56v59.725zm-59.56 0h-59.56v-59.725h59.56v59.725zm-59.56 0h-59.56v-59.725h59.56v59.725zm-59.56 0h-59.56v-59.725h59.56v59.725zm-59.56 0H749.4v-59.725h59.56v59.725zm-59.56 0h-59.56v-59.725h59.56v59.725zm-59.56 0h-59.56v-59.725h59.56v59.725zm-59.56 0h-59.56v-59.725h59.56v59.725zm-59.56 0h-59.56v-59.725h59.56v59.725zm-59.56 0H451.6v-59.725h59.56v59.725zm-59.56 0h-59.56v-59.725h59.56v59.725zm-59.56 0h-59.56v-59.725h59.56v59.725zm-59.56 0h-59.56v-59.725h59.56v59.725zm-59.56 0h-59.56v-59.725h59.56v59.725zm-59.56 0H153.8v-59.725h59.56v59.725zm-59.56 0H94.24v-59.725h59.56v59.725z"/><path d="M94.24 731.471H34.68v-59.725h59.56v59.725zm-59.56 0h-59.56v-59.725h59.56v59.725z"/><path d="M-24.88 731.471h-59.56v-59.725h59.56v59.725zm-59.56 0H-144v-59.725h59.56v59.725zM1345 671.746h-59.56V612.02H1345v59.726zm-59.56 0h-59.56V612.02h59.56v59.726zm-59.56 0h-59.56V612.02h59.56v59.726zm-59.56 0h-59.56V612.02h59.56v59.726zm-59.56 0h-59.56V612.02h59.56v59.726zm-59.56 0h-59.56V612.02h59.56v59.726zm-59.56 0h-59.56V612.02h59.56v59.726zm-59.56 0h-59.56V612.02h59.56v59.726zm-59.56 0h-59.56V612.02h59.56v59.726zm-59.56 0H749.4V612.02h59.56v59.726zm-59.56 0h-59.56V612.02h59.56v59.726zm-59.56 0h-59.56V612.02h59.56v59.726zm-59.56 0h-59.56V612.02h59.56v59.726zm-59.56 0h-59.56V612.02h59.56v59.726zm-59.56 0H451.6V612.02h59.56v59.726zm-59.56 0h-59.56V612.02h59.56v59.726zm-59.56 0h-59.56V612.02h59.56v59.726zm-59.56 0h-59.56V612.02h59.56v59.726zm-59.56 0h-59.56V612.02h59.56v59.726zm-59.56 0H153.8V612.02h59.56v59.726zm-59.56 0H94.24V612.02h59.56v59.726z"/><path d="M94.24 671.746H34.68V612.02h59.56v59.726zm-59.56 0h-59.56V612.02h59.56v59.726z"/><path d="M-24.88 671.746h-59.56V612.02h59.56v59.726zm-59.56 0H-144V612.02h59.56v59.726zM1345 612.02h-59.56v-59.725H1345v59.725zm-59.56 0h-59.56v-59.725h59.56v59.725zm-59.56 0h-59.56v-59.725h59.56v59.725zm-59.56 0h-59.56v-59.725h59.56v59.725zm-59.56 0h-59.56v-59.725h59.56v59.725zm-59.56 0h-59.56v-59.725h59.56v59.725zm-59.56 0h-59.56v-59.725h59.56v59.725zm-59.56 0h-59.56v-59.725h59.56v59.725zm-59.56 0h-59.56v-59.725h59.56v59.725zm-59.56 0H749.4v-59.725h59.56v59.725zm-59.56 0h-59.56v-59.725h59.56v59.725zm-59.56 0h-59.56v-59.725h59.56v59.725zm-59.56 0h-59.56v-59.725h59.56v59.725zm-59.56 0h-59.56v-59.725h59.56v59.725zm-59.56 0H451.6v-59.725h59.56v59.725zm-59.56 0h-59.56v-59.725h59.56v59.725zm-59.56 0h-59.56v-59.725h59.56v59.725zm-59.56 0h-59.56v-59.725h59.56v59.725zm-59.56 0h-59.56v-59.725h59.56v59.725zm-59.56 0H153.8v-59.725h59.56v59.725zm-59.56 0H94.24v-59.725h59.56v59.725z"/><path d="M94.24 612.02H34.68v-59.725h59.56v59.725zm-59.56 0h-59.56v-59.725h59.56v59.725z"/><path d="M-24.88 612.02h-59.56v-59.725h59.56v59.725zm-59.56 0H-144v-59.725h59.56v59.725zM1345 552.295h-59.56v-59.726H1345v59.726zm-59.56 0h-59.56v-59.726h59.56v59.726zm-59.56 0h-59.56v-59.726h59.56v59.726zm-59.56 0h-59.56v-59.726h59.56v59.726zm-59.56 0h-59.56v-59.726h59.56v59.726zm-59.56 0h-59.56v-59.726h59.56v59.726zm-59.56 0h-59.56v-59.726h59.56v59.726zm-59.56 0h-59.56v-59.726h59.56v59.726zm-59.56 0h-59.56v-59.726h59.56v59.726zm-59.56 0H749.4v-59.726h59.56v59.726zm-59.56 0h-59.56v-59.726h59.56v59.726zm-59.56 0h-59.56v-59.726h59.56v59.726zm-59.56 0h-59.56v-59.726h59.56v59.726zm-59.56 0h-59.56v-59.726h59.56v59.726zm-59.56 0H451.6v-59.726h59.56v59.726zm-59.56 0h-59.56v-59.726h59.56v59.726zm-59.56 0h-59.56v-59.726h59.56v59.726zm-59.56 0h-59.56v-59.726h59.56v59.726zm-59.56 0h-59.56v-59.726h59.56v59.726zm-59.56 0H153.8v-59.726h59.56v59.726zm-59.56 0H94.24v-59.726h59.56v59.726z"/><path d="M94.24 552.295H34.68v-59.726h59.56v59.726zm-59.56 0h-59.56v-59.726h59.56v59.726z"/><path d="M-24.88 552.295h-59.56v-59.726h59.56v59.726zm-59.56 0H-144v-59.726h59.56v59.726zM1345 492.569h-59.56v-59.725H1345v59.725zm-59.56 0h-59.56v-59.725h59.56v59.725zm-59.56 0h-59.56v-59.725h59.56v59.725zm-59.56 0h-59.56v-59.725h59.56v59.725zm-59.56 0h-59.56v-59.725h59.56v59.725zm-59.56 0h-59.56v-59.725h59.56v59.725zm-59.56 0h-59.56v-59.725h59.56v59.725zm-59.56 0h-59.56v-59.725h59.56v59.725zm-59.56 0h-59.56v-59.725h59.56v59.725zm-59.56 0H749.4v-59.725h59.56v59.725zm-59.56 0h-59.56v-59.725h59.56v59.725zm-59.56 0h-59.56v-59.725h59.56v59.725zm-59.56 0h-59.56v-59.725h59.56v59.725zm-59.56 0h-59.56v-59.725h59.56v59.725zm-59.56 0H451.6v-59.725h59.56v59.725zm-59.56 0h-59.56v-59.725h59.56v59.725zm-59.56 0h-59.56v-59.725h59.56v59.725zm-59.56 0h-59.56v-59.725h59.56v59.725zm-59.56 0h-59.56v-59.725h59.56v59.725zm-59.56 0H153.8v-59.725h59.56v59.725zm-59.56 0H94.24v-59.725h59.56v59.725z"/><path d="M94.24 492.569H34.68v-59.725h59.56v59.725zm-59.56 0h-59.56v-59.725h59.56v59.725z"/><path d="M-24.88 492.569h-59.56v-59.725h59.56v59.725zm-59.56 0H-144v-59.725h59.56v59.725zM1345 432.844h-59.56v-59.726H1345v59.726zm-59.56 0h-59.56v-59.726h59.56v59.726zm-59.56 0h-59.56v-59.726h59.56v59.726zm-59.56 0h-59.56v-59.726h59.56v59.726zm-59.56 0h-59.56v-59.726h59.56v59.726zm-59.56 0h-59.56v-59.726h59.56v59.726zm-59.56 0h-59.56v-59.726h59.56v59.726zm-59.56 0h-59.56v-59.726h59.56v59.726zm-59.56 0h-59.56v-59.726h59.56v59.726zm-59.56 0H749.4v-59.726h59.56v59.726zm-59.56 0h-59.56v-59.726h59.56v59.726zm-59.56 0h-59.56v-59.726h59.56v59.726zm-59.56 0h-59.56v-59.726h59.56v59.726zm-59.56 0h-59.56v-59.726h59.56v59.726zm-59.56 0H451.6v-59.726h59.56v59.726zm-59.56 0h-59.56v-59.726h59.56v59.726zm-59.56 0h-59.56v-59.726h59.56v59.726zm-59.56 0h-59.56v-59.726h59.56v59.726zm-59.56 0h-59.56v-59.726h59.56v59.726zm-59.56 0H153.8v-59.726h59.56v59.726zm-59.56 0H94.24v-59.726h59.56v59.726z"/><path d="M94.24 432.844H34.68v-59.726h59.56v59.726zm-59.56 0h-59.56v-59.726h59.56v59.726z"/><path d="M-24.88 432.844h-59.56v-59.726h59.56v59.726zm-59.56 0H-144v-59.726h59.56v59.726zM1345 373.118h-59.56v-59.725H1345v59.725zm-59.56 0h-59.56v-59.725h59.56v59.725zm-59.56 0h-59.56v-59.725h59.56v59.725zm-59.56 0h-59.56v-59.725h59.56v59.725zm-59.56 0h-59.56v-59.725h59.56v59.725zm-59.56 0h-59.56v-59.725h59.56v59.725zm-59.56 0h-59.56v-59.725h59.56v59.725zm-59.56 0h-59.56v-59.725h59.56v59.725zm-59.56 0h-59.56v-59.725h59.56v59.725zm-59.56 0H749.4v-59.725h59.56v59.725zm-59.56 0h-59.56v-59.725h59.56v59.725zm-59.56 0h-59.56v-59.725h59.56v59.725zm-59.56 0h-59.56v-59.725h59.56v59.725zm-59.56 0h-59.56v-59.725h59.56v59.725zm-59.56 0H451.6v-59.725h59.56v59.725zm-59.56 0h-59.56v-59.725h59.56v59.725zm-59.56 0h-59.56v-59.725h59.56v59.725zm-59.56 0h-59.56v-59.725h59.56v59.725zm-59.56 0h-59.56v-59.725h59.56v59.725zm-59.56 0H153.8v-59.725h59.56v59.725zm-59.56 0H94.24v-59.725h59.56v59.725z"/><path d="M94.24 373.118H34.68v-59.725h59.56v59.725zm-59.56 0h-59.56v-59.725h59.56v59.725z"/><path d="M-24.88 373.118h-59.56v-59.725h59.56v59.725zm-59.56 0H-144v-59.725h59.56v59.725zM1345 313.393h-59.56v-59.726H1345v59.726zm-59.56 0h-59.56v-59.726h59.56v59.726zm-59.56 0h-59.56v-59.726h59.56v59.726zm-59.56 0h-59.56v-59.726h59.56v59.726zm-59.56 0h-59.56v-59.726h59.56v59.726zm-59.56 0h-59.56v-59.726h59.56v59.726zm-59.56 0h-59.56v-59.726h59.56v59.726zm-59.56 0h-59.56v-59.726h59.56v59.726zm-59.56 0h-59.56v-59.726h59.56v59.726zm-59.56 0H749.4v-59.726h59.56v59.726zm-59.56 0h-59.56v-59.726h59.56v59.726zm-59.56 0h-59.56v-59.726h59.56v59.726zm-59.56 0h-59.56v-59.726h59.56v59.726zm-59.56 0h-59.56v-59.726h59.56v59.726zm-59.56 0H451.6v-59.726h59.56v59.726zm-59.56 0h-59.56v-59.726h59.56v59.726zm-59.56 0h-59.56v-59.726h59.56v59.726zm-59.56 0h-59.56v-59.726h59.56v59.726zm-59.56 0h-59.56v-59.726h59.56v59.726zm-59.56 0H153.8v-59.726h59.56v59.726zm-59.56 0H94.24v-59.726h59.56v59.726z"/><path d="M94.24 313.393H34.68v-59.726h59.56v59.726zm-59.56 0h-59.56v-59.726h59.56v59.726z"/><path d="M-24.88 313.393h-59.56v-59.726h59.56v59.726zm-59.56 0H-144v-59.726h59.56v59.726zM1345 253.667h-59.56v-59.725H1345v59.725zm-59.56 0h-59.56v-59.725h59.56v59.725zm-59.56 0h-59.56v-59.725h59.56v59.725zm-59.56 0h-59.56v-59.725h59.56v59.725zm-59.56 0h-59.56v-59.725h59.56v59.725zm-59.56 0h-59.56v-59.725h59.56v59.725zm-59.56 0h-59.56v-59.725h59.56v59.725zm-59.56 0h-59.56v-59.725h59.56v59.725zm-59.56 0h-59.56v-59.725h59.56v59.725zm-59.56 0H749.4v-59.725h59.56v59.725zm-59.56 0h-59.56v-59.725h59.56v59.725zm-59.56 0h-59.56v-59.725h59.56v59.725zm-59.56 0h-59.56v-59.725h59.56v59.725zm-59.56 0h-59.56v-59.725h59.56v59.725zm-59.56 0H451.6v-59.725h59.56v59.725zm-59.56 0h-59.56v-59.725h59.56v59.725zm-59.56 0h-59.56v-59.725h59.56v59.725zm-59.56 0h-59.56v-59.725h59.56v59.725zm-59.56 0h-59.56v-59.725h59.56v59.725zm-59.56 0H153.8v-59.725h59.56v59.725zm-59.56 0H94.24v-59.725h59.56v59.725z"/><path d="M94.24 253.667H34.68v-59.725h59.56v59.725zm-59.56 0h-59.56v-59.725h59.56v59.725z"/><path d="M-24.88 253.667h-59.56v-59.725h59.56v59.725zm-59.56 0H-144v-59.725h59.56v59.725zM1345 193.942h-59.56v-59.726H1345v59.726zm-59.56 0h-59.56v-59.726h59.56v59.726zm-59.56 0h-59.56v-59.726h59.56v59.726zm-59.56 0h-59.56v-59.726h59.56v59.726zm-59.56 0h-59.56v-59.726h59.56v59.726zm-59.56 0h-59.56v-59.726h59.56v59.726zm-59.56 0h-59.56v-59.726h59.56v59.726zm-59.56 0h-59.56v-59.726h59.56v59.726zm-59.56 0h-59.56v-59.726h59.56v59.726zm-59.56 0H749.4v-59.726h59.56v59.726zm-59.56 0h-59.56v-59.726h59.56v59.726zm-59.56 0h-59.56v-59.726h59.56v59.726zm-59.56 0h-59.56v-59.726h59.56v59.726zm-59.56 0h-59.56v-59.726h59.56v59.726zm-59.56 0H451.6v-59.726h59.56v59.726zm-59.56 0h-59.56v-59.726h59.56v59.726zm-59.56 0h-59.56v-59.726h59.56v59.726zm-59.56 0h-59.56v-59.726h59.56v59.726zm-59.56 0h-59.56v-59.726h59.56v59.726zm-59.56 0H153.8v-59.726h59.56v59.726zm-59.56 0H94.24v-59.726h59.56v59.726z"/><path d="M94.24 193.942H34.68v-59.726h59.56v59.726zm-59.56 0h-59.56v-59.726h59.56v59.726z"/><path d="M-24.88 193.942h-59.56v-59.726h59.56v59.726zm-59.56 0H-144v-59.726h59.56v59.726zM1345 134.216h-59.56V74.491H1345v59.725zm-59.56 0h-59.56V74.491h59.56v59.725zm-59.56 0h-59.56V74.491h59.56v59.725zm-59.56 0h-59.56V74.491h59.56v59.725zm-59.56 0h-59.56V74.491h59.56v59.725zm-59.56 0h-59.56V74.491h59.56v59.725zm-59.56 0h-59.56V74.491h59.56v59.725zm-59.56 0h-59.56V74.491h59.56v59.725zm-59.56 0h-59.56V74.491h59.56v59.725zm-59.56 0H749.4V74.491h59.56v59.725zm-59.56 0h-59.56V74.491h59.56v59.725zm-59.56 0h-59.56V74.491h59.56v59.725zm-59.56 0h-59.56V74.491h59.56v59.725zm-59.56 0h-59.56V74.491h59.56v59.725zm-59.56 0H451.6V74.491h59.56v59.725zm-59.56 0h-59.56V74.491h59.56v59.725zm-59.56 0h-59.56V74.491h59.56v59.725zm-59.56 0h-59.56V74.491h59.56v59.725zm-59.56 0h-59.56V74.491h59.56v59.725zm-59.56 0H153.8V74.491h59.56v59.725zm-59.56 0H94.24V74.491h59.56v59.725z"/><path d="M94.24 134.216H34.68V74.491h59.56v59.725zm-59.56 0h-59.56V74.491h59.56v59.725z"/><path d="M-24.88 134.216h-59.56V74.491h59.56v59.725zm-59.56 0H-144V74.491h59.56v59.725zM1345 74.491h-59.56V14.766H1345V74.49zm-59.56 0h-59.56V14.766h59.56V74.49zm-59.56 0h-59.56V14.766h59.56V74.49zm-59.56 0h-59.56V14.766h59.56V74.49zm-59.56 0h-59.56V14.766h59.56V74.49zm-59.56 0h-59.56V14.766h59.56V74.49zm-59.56 0h-59.56V14.766h59.56V74.49zm-59.56 0h-59.56V14.766h59.56V74.49zm-59.56 0h-59.56V14.766h59.56V74.49zm-59.56 0H749.4V14.766h59.56V74.49zm-59.56 0h-59.56V14.766h59.56V74.49zm-59.56 0h-59.56V14.766h59.56V74.49zm-59.56 0h-59.56V14.766h59.56V74.49zm-59.56 0h-59.56V14.766h59.56V74.49zm-59.56 0H451.6V14.766h59.56V74.49zm-59.56 0h-59.56V14.766h59.56V74.49zm-59.56 0h-59.56V14.766h59.56V74.49zm-59.56 0h-59.56V14.766h59.56V74.49zm-59.56 0h-59.56V14.766h59.56V74.49zm-59.56 0H153.8V14.766h59.56V74.49zm-59.56 0H94.24V14.766h59.56V74.49z"/><path d="M94.24 74.491H34.68V14.766h59.56V74.49zm-59.56 0h-59.56V14.766h59.56V74.49z"/><path d="M-24.88 74.491h-59.56V14.766h59.56V74.49zm-59.56 0H-144V14.766h59.56V74.49zM1345 14.766h-59.56V-44.96H1345v59.726zm-59.56 0h-59.56V-44.96h59.56v59.726zm-59.56 0h-59.56V-44.96h59.56v59.726zm-59.56 0h-59.56V-44.96h59.56v59.726zm-59.56 0h-59.56V-44.96h59.56v59.726zm-59.56 0h-59.56V-44.96h59.56v59.726zm-59.56 0h-59.56V-44.96h59.56v59.726zm-59.56 0h-59.56V-44.96h59.56v59.726zm-59.56 0h-59.56V-44.96h59.56v59.726zm-59.56 0H749.4V-44.96h59.56v59.726zm-59.56 0h-59.56V-44.96h59.56v59.726zm-59.56 0h-59.56V-44.96h59.56v59.726zm-59.56 0h-59.56V-44.96h59.56v59.726zm-59.56 0h-59.56V-44.96h59.56v59.726zm-59.56 0H451.6V-44.96h59.56v59.726zm-59.56 0h-59.56V-44.96h59.56v59.726zm-59.56 0h-59.56V-44.96h59.56v59.726zm-59.56 0h-59.56V-44.96h59.56v59.726zm-59.56 0h-59.56V-44.96h59.56v59.726zm-59.56 0H153.8V-44.96h59.56v59.726zm-59.56 0H94.24V-44.96h59.56v59.726z"/><path d="M94.24 14.766H34.68V-44.96h59.56v59.726zm-59.56 0h-59.56V-44.96h59.56v59.726z"/><path d="M-24.88 14.766h-59.56V-44.96h59.56v59.726zm-59.56 0H-144V-44.96h59.56v59.726zM1345-44.96h-59.56v-59.725H1345v59.725zm-59.56 0h-59.56v-59.725h59.56v59.725zm-59.56 0h-59.56v-59.725h59.56v59.725zm-59.56 0h-59.56v-59.725h59.56v59.725zm-59.56 0h-59.56v-59.725h59.56v59.725zm-59.56 0h-59.56v-59.725h59.56v59.725zm-59.56 0h-59.56v-59.725h59.56v59.725zm-59.56 0h-59.56v-59.725h59.56v59.725zm-59.56 0h-59.56v-59.725h59.56v59.725zm-59.56 0H749.4v-59.725h59.56v59.725zm-59.56 0h-59.56v-59.725h59.56v59.725zm-59.56 0h-59.56v-59.725h59.56v59.725zm-59.56 0h-59.56v-59.725h59.56v59.725zm-59.56 0h-59.56v-59.725h59.56v59.725zm-59.56 0H451.6v-59.725h59.56v59.725zm-59.56 0h-59.56v-59.725h59.56v59.725zm-59.56 0h-59.56v-59.725h59.56v59.725zm-59.56 0h-59.56v-59.725h59.56v59.725zm-59.56 0h-59.56v-59.725h59.56v59.725zm-59.56 0H153.8v-59.725h59.56v59.725zm-59.56 0H94.24v-59.725h59.56v59.725z"/><path d="M94.24-44.96H34.68v-59.725h59.56v59.725zm-59.56 0h-59.56v-59.725h59.56v59.725z"/><path d="M-24.88-44.96h-59.56v-59.725h59.56v59.725zm-59.56 0H-144v-59.725h59.56v59.725zM1345-104.685h-59.56v-59.726H1345v59.726zm-59.56 0h-59.56v-59.726h59.56v59.726zm-59.56 0h-59.56v-59.726h59.56v59.726zm-59.56 0h-59.56v-59.726h59.56v59.726zm-59.56 0h-59.56v-59.726h59.56v59.726zm-59.56 0h-59.56v-59.726h59.56v59.726zm-59.56 0h-59.56v-59.726h59.56v59.726zm-59.56 0h-59.56v-59.726h59.56v59.726zm-59.56 0h-59.56v-59.726h59.56v59.726zm-59.56 0H749.4v-59.726h59.56v59.726zm-59.56 0h-59.56v-59.726h59.56v59.726zm-59.56 0h-59.56v-59.726h59.56v59.726zm-59.56 0h-59.56v-59.726h59.56v59.726zm-59.56 0h-59.56v-59.726h59.56v59.726zm-59.56 0H451.6v-59.726h59.56v59.726zm-59.56 0h-59.56v-59.726h59.56v59.726zm-59.56 0h-59.56v-59.726h59.56v59.726zm-59.56 0h-59.56v-59.726h59.56v59.726zm-59.56 0h-59.56v-59.726h59.56v59.726zm-59.56 0H153.8v-59.726h59.56v59.726zm-59.56 0H94.24v-59.726h59.56v59.726z"/><path d="M94.24-104.685H34.68v-59.726h59.56v59.726zm-59.56 0h-59.56v-59.726h59.56v59.726z"/><path d="M-24.88-104.685h-59.56v-59.726h59.56v59.726zm-59.56 0H-144v-59.726h59.56v59.726zM1345-164.411h-59.56v-59.725H1345v59.725zm-59.56 0h-59.56v-59.725h59.56v59.725zm-59.56 0h-59.56v-59.725h59.56v59.725zm-59.56 0h-59.56v-59.725h59.56v59.725zm-59.56 0h-59.56v-59.725h59.56v59.725zm-59.56 0h-59.56v-59.725h59.56v59.725zm-59.56 0h-59.56v-59.725h59.56v59.725zm-59.56 0h-59.56v-59.725h59.56v59.725zm-59.56 0h-59.56v-59.725h59.56v59.725zm-59.56 0H749.4v-59.725h59.56v59.725zm-59.56 0h-59.56v-59.725h59.56v59.725zm-59.56 0h-59.56v-59.725h59.56v59.725zm-59.56 0h-59.56v-59.725h59.56v59.725zm-59.56 0h-59.56v-59.725h59.56v59.725zm-59.56 0H451.6v-59.725h59.56v59.725zm-59.56 0h-59.56v-59.725h59.56v59.725zm-59.56 0h-59.56v-59.725h59.56v59.725zm-59.56 0h-59.56v-59.725h59.56v59.725zm-59.56 0h-59.56v-59.725h59.56v59.725zm-59.56 0H153.8v-59.725h59.56v59.725zm-59.56 0H94.24v-59.725h59.56v59.725z"/><path d="M94.24-164.411H34.68v-59.725h59.56v59.725zm-59.56 0h-59.56v-59.725h59.56v59.725z"/><path d="M-24.88-164.411h-59.56v-59.725h59.56v59.725zm-59.56 0H-144v-59.725h59.56v59.725z"/></mask><path d="M1285.94 1269v-59.73h-1V1269h1zm-.5-59.23H1345v-1h-59.56v1zm-59.06 59.23v-59.73h-1V1269h1zm-.5-59.23h59.56v-1h-59.56v1zm-59.06 59.23v-59.73h-1V1269h1zm-.5-59.23h59.56v-1h-59.56v1zm-59.06 59.23v-59.73h-1V1269h1zm-.5-59.23h59.56v-1h-59.56v1zM1047.7 1269v-59.73h-1V1269h1zm-.5-59.23h59.56v-1h-59.56v1zM988.14 1269v-59.73h-1V1269h1zm-.5-59.23h59.56v-1h-59.56v1zM928.58 1269v-59.73h-1V1269h1zm-.5-59.23h59.56v-1h-59.56v1zM869.02 1269v-59.73h-1V1269h1zm-.5-59.23h59.56v-1h-59.56v1zM809.46 1269v-59.73h-1V1269h1zm-.5-59.23h59.56v-1h-59.56v1zM749.9 1269v-59.73h-1V1269h1zm-.5-59.23h59.56v-1H749.4v1zM690.34 1269v-59.73h-1V1269h1zm-.5-59.23h59.56v-1h-59.56v1zM630.78 1269v-59.73h-1V1269h1zm-.5-59.23h59.56v-1h-59.56v1zM571.22 1269v-59.73h-1V1269h1zm-.5-59.23h59.56v-1h-59.56v1zM511.66 1269v-59.73h-1V1269h1zm-.5-59.23h59.56v-1h-59.56v1zM452.1 1269v-59.73h-1V1269h1zm-.5-59.23h59.56v-1H451.6v1zM392.54 1269v-59.73h-1V1269h1zm-.5-59.23h59.56v-1h-59.56v1zM332.98 1269v-59.73h-1V1269h1zm-.5-59.23h59.56v-1h-59.56v1zM273.42 1269v-59.73h-1V1269h1zm-.5-59.23h59.56v-1h-59.56v1zM213.86 1269v-59.73h-1V1269h1zm-.5-59.23h59.56v-1h-59.56v1zM154.3 1269v-59.73h-1V1269h1zm-.5-59.23h59.56v-1H153.8v1zM94.74 1269v-59.73h-1V1269h1zm-.5-59.23h59.56v-1H94.24v1zM35.18 1269v-59.73h-1V1269h1zm-.5-59.23h59.56v-1H34.68v1zM-24.38 1269v-59.73h-1V1269h1zm-.5-59.23h59.56v-1h-59.56v1zM-83.94 1269v-59.73h-1V1269h1zm-.5-59.23h59.56v-1h-59.56v1zm-59.56 0h59.56v-1H-144v1zm1429.94-.5v-59.72h-1v59.72h1zm-.5-59.22H1345v-1h-59.56v1zm-59.06 59.22v-59.72h-1v59.72h1zm-.5-59.22h59.56v-1h-59.56v1zm-59.06 59.22v-59.72h-1v59.72h1zm-.5-59.22h59.56v-1h-59.56v1zm-59.06 59.22v-59.72h-1v59.72h1zm-.5-59.22h59.56v-1h-59.56v1zm-59.06 59.22v-59.72h-1v59.72h1zm-.5-59.22h59.56v-1h-59.56v1zm-59.06 59.22v-59.72h-1v59.72h1zm-.5-59.22h59.56v-1h-59.56v1zm-59.06 59.22v-59.72h-1v59.72h1zm-.5-59.22h59.56v-1h-59.56v1zm-59.06 59.22v-59.72h-1v59.72h1zm-.5-59.22h59.56v-1h-59.56v1zm-59.06 59.22v-59.72h-1v59.72h1zm-.5-59.22h59.56v-1h-59.56v1zm-59.06 59.22v-59.72h-1v59.72h1zm-.5-59.22h59.56v-1H749.4v1zm-59.06 59.22v-59.72h-1v59.72h1zm-.5-59.22h59.56v-1h-59.56v1zm-59.06 59.22v-59.72h-1v59.72h1zm-.5-59.22h59.56v-1h-59.56v1zm-59.06 59.22v-59.72h-1v59.72h1zm-.5-59.22h59.56v-1h-59.56v1zm-59.06 59.22v-59.72h-1v59.72h1zm-.5-59.22h59.56v-1h-59.56v1zm-59.06 59.22v-59.72h-1v59.72h1zm-.5-59.22h59.56v-1H451.6v1zm-59.06 59.22v-59.72h-1v59.72h1zm-.5-59.22h59.56v-1h-59.56v1zm-59.06 59.22v-59.72h-1v59.72h1zm-.5-59.22h59.56v-1h-59.56v1zm-59.06 59.22v-59.72h-1v59.72h1zm-.5-59.22h59.56v-1h-59.56v1zm-59.06 59.22v-59.72h-1v59.72h1zm-.5-59.22h59.56v-1h-59.56v1zm-59.06 59.22v-59.72h-1v59.72h1zm-.5-59.22h59.56v-1H153.8v1zm-59.06 59.22v-59.72h-1v59.72h1zm-.5-59.22h59.56v-1H94.24v1zm-59.06 59.22v-59.72h-1v59.72h1zm-.5-59.22h59.56v-1H34.68v1zm-59.06 59.22v-59.72h-1v59.72h1zm-.5-59.22h59.56v-1h-59.56v1zm-59.06 59.22v-59.72h-1v59.72h1zm-.5-59.22h59.56v-1h-59.56v1zm-59.56 0h59.56v-1H-144v1zm1429.94-.5v-59.73h-1v59.73h1zm-.5-59.23H1345v-1h-59.56v1zm-59.06 59.23v-59.73h-1v59.73h1zm-.5-59.23h59.56v-1h-59.56v1zm-59.06 59.23v-59.73h-1v59.73h1zm-.5-59.23h59.56v-1h-59.56v1zm-59.06 59.23v-59.73h-1v59.73h1zm-.5-59.23h59.56v-1h-59.56v1zm-59.06 59.23v-59.73h-1v59.73h1zm-.5-59.23h59.56v-1h-59.56v1zm-59.06 59.23v-59.73h-1v59.73h1zm-.5-59.23h59.56v-1h-59.56v1zm-59.06 59.23v-59.73h-1v59.73h1zm-.5-59.23h59.56v-1h-59.56v1zm-59.06 59.23v-59.73h-1v59.73h1zm-.5-59.23h59.56v-1h-59.56v1zm-59.06 59.23v-59.73h-1v59.73h1zm-.5-59.23h59.56v-1h-59.56v1zm-59.06 59.23v-59.73h-1v59.73h1zm-.5-59.23h59.56v-1H749.4v1zm-59.06 59.23v-59.73h-1v59.73h1zm-.5-59.23h59.56v-1h-59.56v1zm-59.06 59.23v-59.73h-1v59.73h1zm-.5-59.23h59.56v-1h-59.56v1zm-59.06 59.23v-59.73h-1v59.73h1zm-.5-59.23h59.56v-1h-59.56v1zm-59.06 59.23v-59.73h-1v59.73h1zm-.5-59.23h59.56v-1h-59.56v1zm-59.06 59.23v-59.73h-1v59.73h1zm-.5-59.23h59.56v-1H451.6v1zm-59.06 59.23v-59.73h-1v59.73h1zm-.5-59.23h59.56v-1h-59.56v1zm-59.06 59.23v-59.73h-1v59.73h1zm-.5-59.23h59.56v-1h-59.56v1zm-59.06 59.23v-59.73h-1v59.73h1zm-.5-59.23h59.56v-1h-59.56v1zm-59.06 59.23v-59.73h-1v59.73h1zm-.5-59.23h59.56v-1h-59.56v1zm-59.06 59.23v-59.73h-1v59.73h1zm-.5-59.23h59.56v-1H153.8v1zm-59.06 59.23v-59.73h-1v59.73h1zm-.5-59.23h59.56v-1H94.24v1zm-59.06 59.23v-59.73h-1v59.73h1zm-.5-59.23h59.56v-1H34.68v1zm-59.06 59.23v-59.73h-1v59.73h1zm-.5-59.23h59.56v-1h-59.56v1zm-59.06 59.23v-59.73h-1v59.73h1zm-.5-59.23h59.56v-1h-59.56v1zm-59.56 0h59.56v-1H-144v1zm1429.94-.5v-59.72h-1v59.72h1zm-.5-59.22H1345v-1h-59.56v1zm-59.06 59.22v-59.72h-1v59.72h1zm-.5-59.22h59.56v-1h-59.56v1zm-59.06 59.22v-59.72h-1v59.72h1zm-.5-59.22h59.56v-1h-59.56v1zm-59.06 59.22v-59.72h-1v59.72h1zm-.5-59.22h59.56v-1h-59.56v1zm-59.06 59.22v-59.72h-1v59.72h1zm-.5-59.22h59.56v-1h-59.56v1zm-59.06 59.22v-59.72h-1v59.72h1zm-.5-59.22h59.56v-1h-59.56v1zm-59.06 59.22v-59.72h-1v59.72h1zm-.5-59.22h59.56v-1h-59.56v1zm-59.06 59.22v-59.72h-1v59.72h1zm-.5-59.22h59.56v-1h-59.56v1zm-59.06 59.22v-59.72h-1v59.72h1zm-.5-59.22h59.56v-1h-59.56v1zm-59.06 59.22v-59.72h-1v59.72h1zm-.5-59.22h59.56v-1H749.4v1zm-59.06 59.22v-59.72h-1v59.72h1zm-.5-59.22h59.56v-1h-59.56v1zm-59.06 59.22v-59.72h-1v59.72h1zm-.5-59.22h59.56v-1h-59.56v1zm-59.06 59.22v-59.72h-1v59.72h1zm-.5-59.22h59.56v-1h-59.56v1zm-59.06 59.22v-59.72h-1v59.72h1zm-.5-59.22h59.56v-1h-59.56v1zm-59.06 59.22v-59.72h-1v59.72h1zm-.5-59.22h59.56v-1H451.6v1zm-59.06 59.22v-59.72h-1v59.72h1zm-.5-59.22h59.56v-1h-59.56v1zm-59.06 59.22v-59.72h-1v59.72h1zm-.5-59.22h59.56v-1h-59.56v1zm-59.06 59.22v-59.72h-1v59.72h1zm-.5-59.22h59.56v-1h-59.56v1zm-59.06 59.22v-59.72h-1v59.72h1zm-.5-59.22h59.56v-1h-59.56v1zm-59.06 59.22v-59.72h-1v59.72h1zm-.5-59.22h59.56v-1H153.8v1zm-59.06 59.22v-59.72h-1v59.72h1zm-.5-59.22h59.56v-1H94.24v1zm-59.06 59.22v-59.72h-1v59.72h1zm-.5-59.22h59.56v-1H34.68v1zm-59.06 59.22v-59.72h-1v59.72h1zm-.5-59.22h59.56v-1h-59.56v1zm-59.06 59.22v-59.72h-1v59.72h1zm-.5-59.22h59.56v-1h-59.56v1zm-59.56 0h59.56v-1H-144v1zm1429.94-.5v-59.727h-1v59.727h1zm-.5-59.227H1345v-1h-59.56v1zm-59.06 59.227v-59.727h-1v59.727h1zm-.5-59.227h59.56v-1h-59.56v1zm-59.06 59.227v-59.727h-1v59.727h1zm-.5-59.227h59.56v-1h-59.56v1zm-59.06 59.227v-59.727h-1v59.727h1zm-.5-59.227h59.56v-1h-59.56v1zm-59.06 59.227v-59.727h-1v59.727h1zm-.5-59.227h59.56v-1h-59.56v1zm-59.06 59.227v-59.727h-1v59.727h1zm-.5-59.227h59.56v-1h-59.56v1zm-59.06 59.227v-59.727h-1v59.727h1zm-.5-59.227h59.56v-1h-59.56v1zm-59.06 59.227v-59.727h-1v59.727h1zm-.5-59.227h59.56v-1h-59.56v1zm-59.06 59.227v-59.727h-1v59.727h1zm-.5-59.227h59.56v-1h-59.56v1zM749.9 1030.1v-59.727h-1v59.727h1zm-.5-59.227h59.56v-1H749.4v1zm-59.06 59.227v-59.727h-1v59.727h1zm-.5-59.227h59.56v-1h-59.56v1zm-59.06 59.227v-59.727h-1v59.727h1zm-.5-59.227h59.56v-1h-59.56v1zm-59.06 59.227v-59.727h-1v59.727h1zm-.5-59.227h59.56v-1h-59.56v1zm-59.06 59.227v-59.727h-1v59.727h1zm-.5-59.227h59.56v-1h-59.56v1zM452.1 1030.1v-59.727h-1v59.727h1zm-.5-59.227h59.56v-1H451.6v1zm-59.06 59.227v-59.727h-1v59.727h1zm-.5-59.227h59.56v-1h-59.56v1zm-59.06 59.227v-59.727h-1v59.727h1zm-.5-59.227h59.56v-1h-59.56v1zm-59.06 59.227v-59.727h-1v59.727h1zm-.5-59.227h59.56v-1h-59.56v1zm-59.06 59.227v-59.727h-1v59.727h1zm-.5-59.227h59.56v-1h-59.56v1zM154.3 1030.1v-59.727h-1v59.727h1zm-.5-59.227h59.56v-1H153.8v1zM94.74 1030.1v-59.727h-1v59.727h1zm-.5-59.227h59.56v-1H94.24v1zM35.18 1030.1v-59.727h-1v59.727h1zm-.5-59.227h59.56v-1H34.68v1zm-59.06 59.227v-59.727h-1v59.727h1zm-.5-59.227h59.56v-1h-59.56v1zm-59.06 59.227v-59.727h-1v59.727h1zm-.5-59.227h59.56v-1h-59.56v1zm-59.56 0h59.56v-1H-144v1zm1429.94-.5v-59.726h-1v59.726h1zm-.5-59.226H1345v-1h-59.56v1zm-59.06 59.226v-59.726h-1v59.726h1zm-.5-59.226h59.56v-1h-59.56v1zm-59.06 59.226v-59.726h-1v59.726h1zm-.5-59.226h59.56v-1h-59.56v1zm-59.06 59.226v-59.726h-1v59.726h1zm-.5-59.226h59.56v-1h-59.56v1zm-59.06 59.226v-59.726h-1v59.726h1zm-.5-59.226h59.56v-1h-59.56v1zm-59.06 59.226v-59.726h-1v59.726h1zm-.5-59.226h59.56v-1h-59.56v1zm-59.06 59.226v-59.726h-1v59.726h1zm-.5-59.226h59.56v-1h-59.56v1zm-59.06 59.226v-59.726h-1v59.726h1zm-.5-59.226h59.56v-1h-59.56v1zm-59.06 59.226v-59.726h-1v59.726h1zm-.5-59.226h59.56v-1h-59.56v1zm-59.06 59.226v-59.726h-1v59.726h1zm-.5-59.226h59.56v-1H749.4v1zm-59.06 59.226v-59.726h-1v59.726h1zm-.5-59.226h59.56v-1h-59.56v1zm-59.06 59.226v-59.726h-1v59.726h1zm-.5-59.226h59.56v-1h-59.56v1zm-59.06 59.226v-59.726h-1v59.726h1zm-.5-59.226h59.56v-1h-59.56v1zm-59.06 59.226v-59.726h-1v59.726h1zm-.5-59.226h59.56v-1h-59.56v1zm-59.06 59.226v-59.726h-1v59.726h1zm-.5-59.226h59.56v-1H451.6v1zm-59.06 59.226v-59.726h-1v59.726h1zm-.5-59.226h59.56v-1h-59.56v1zm-59.06 59.226v-59.726h-1v59.726h1zm-.5-59.226h59.56v-1h-59.56v1zm-59.06 59.226v-59.726h-1v59.726h1zm-.5-59.226h59.56v-1h-59.56v1zm-59.06 59.226v-59.726h-1v59.726h1zm-.5-59.226h59.56v-1h-59.56v1zm-59.06 59.226v-59.726h-1v59.726h1zm-.5-59.226h59.56v-1H153.8v1zm-59.06 59.226v-59.726h-1v59.726h1zm-.5-59.226h59.56v-1H94.24v1zm-59.06 59.226v-59.726h-1v59.726h1zm-.5-59.226h59.56v-1H34.68v1zm-59.06 59.226v-59.726h-1v59.726h1zm-.5-59.226h59.56v-1h-59.56v1zm-59.06 59.226v-59.726h-1v59.726h1zm-.5-59.226h59.56v-1h-59.56v1zm-59.56 0h59.56v-1H-144v1zm1429.94-.5v-59.725h-1v59.725h1zm-.5-59.225H1345v-1h-59.56v1zm-59.06 59.225v-59.725h-1v59.725h1zm-.5-59.225h59.56v-1h-59.56v1zm-59.06 59.225v-59.725h-1v59.725h1zm-.5-59.225h59.56v-1h-59.56v1zm-59.06 59.225v-59.725h-1v59.725h1zm-.5-59.225h59.56v-1h-59.56v1zm-59.06 59.225v-59.725h-1v59.725h1zm-.5-59.225h59.56v-1h-59.56v1zm-59.06 59.225v-59.725h-1v59.725h1zm-.5-59.225h59.56v-1h-59.56v1zm-59.06 59.225v-59.725h-1v59.725h1zm-.5-59.225h59.56v-1h-59.56v1zm-59.06 59.225v-59.725h-1v59.725h1zm-.5-59.225h59.56v-1h-59.56v1zm-59.06 59.225v-59.725h-1v59.725h1zm-.5-59.225h59.56v-1h-59.56v1zm-59.06 59.225v-59.725h-1v59.725h1zm-.5-59.225h59.56v-1H749.4v1zm-59.06 59.225v-59.725h-1v59.725h1zm-.5-59.225h59.56v-1h-59.56v1zm-59.06 59.225v-59.725h-1v59.725h1zm-.5-59.225h59.56v-1h-59.56v1zm-59.06 59.225v-59.725h-1v59.725h1zm-.5-59.225h59.56v-1h-59.56v1zm-59.06 59.225v-59.725h-1v59.725h1zm-.5-59.225h59.56v-1h-59.56v1zm-59.06 59.225v-59.725h-1v59.725h1zm-.5-59.225h59.56v-1H451.6v1zm-59.06 59.225v-59.725h-1v59.725h1zm-.5-59.225h59.56v-1h-59.56v1zm-59.06 59.225v-59.725h-1v59.725h1zm-.5-59.225h59.56v-1h-59.56v1zm-59.06 59.225v-59.725h-1v59.725h1zm-.5-59.225h59.56v-1h-59.56v1zm-59.06 59.225v-59.725h-1v59.725h1zm-.5-59.225h59.56v-1h-59.56v1zm-59.06 59.225v-59.725h-1v59.725h1zm-.5-59.225h59.56v-1H153.8v1zm-59.06 59.225v-59.725h-1v59.725h1zm-.5-59.225h59.56v-1H94.24v1zm-59.06 59.225v-59.725h-1v59.725h1zm-.5-59.225h59.56v-1H34.68v1zm-59.06 59.225v-59.725h-1v59.725h1zm-.5-59.225h59.56v-1h-59.56v1zm-59.06 59.225v-59.725h-1v59.725h1zm-.5-59.225h59.56v-1h-59.56v1zm-59.56 0h59.56v-1H-144v1zm1429.94-.5v-59.726h-1v59.726h1zm-.5-59.226H1345v-1h-59.56v1zm-59.06 59.226v-59.726h-1v59.726h1zm-.5-59.226h59.56v-1h-59.56v1zm-59.06 59.226v-59.726h-1v59.726h1zm-.5-59.226h59.56v-1h-59.56v1zm-59.06 59.226v-59.726h-1v59.726h1zm-.5-59.226h59.56v-1h-59.56v1zm-59.06 59.226v-59.726h-1v59.726h1zm-.5-59.226h59.56v-1h-59.56v1zm-59.06 59.226v-59.726h-1v59.726h1zm-.5-59.226h59.56v-1h-59.56v1zm-59.06 59.226v-59.726h-1v59.726h1zm-.5-59.226h59.56v-1h-59.56v1zm-59.06 59.226v-59.726h-1v59.726h1zm-.5-59.226h59.56v-1h-59.56v1zm-59.06 59.226v-59.726h-1v59.726h1zm-.5-59.226h59.56v-1h-59.56v1zm-59.06 59.226v-59.726h-1v59.726h1zm-.5-59.226h59.56v-1H749.4v1zm-59.06 59.226v-59.726h-1v59.726h1zm-.5-59.226h59.56v-1h-59.56v1zm-59.06 59.226v-59.726h-1v59.726h1zm-.5-59.226h59.56v-1h-59.56v1zm-59.06 59.226v-59.726h-1v59.726h1zm-.5-59.226h59.56v-1h-59.56v1zm-59.06 59.226v-59.726h-1v59.726h1zm-.5-59.226h59.56v-1h-59.56v1zm-59.06 59.226v-59.726h-1v59.726h1zm-.5-59.226h59.56v-1H451.6v1zm-59.06 59.226v-59.726h-1v59.726h1zm-.5-59.226h59.56v-1h-59.56v1zm-59.06 59.226v-59.726h-1v59.726h1zm-.5-59.226h59.56v-1h-59.56v1zm-59.06 59.226v-59.726h-1v59.726h1zm-.5-59.226h59.56v-1h-59.56v1zm-59.06 59.226v-59.726h-1v59.726h1zm-.5-59.226h59.56v-1h-59.56v1zm-59.06 59.226v-59.726h-1v59.726h1zm-.5-59.226h59.56v-1H153.8v1zm-59.06 59.226v-59.726h-1v59.726h1zm-.5-59.226h59.56v-1H94.24v1zm-59.06 59.226v-59.726h-1v59.726h1zm-.5-59.226h59.56v-1H34.68v1zm-59.06 59.226v-59.726h-1v59.726h1zm-.5-59.226h59.56v-1h-59.56v1zm-59.06 59.226v-59.726h-1v59.726h1zm-.5-59.226h59.56v-1h-59.56v1zm-59.56 0h59.56v-1H-144v1zm1429.94-.5v-59.725h-1v59.725h1zm-.5-59.225H1345v-1h-59.56v1zm-59.06 59.225v-59.725h-1v59.725h1zm-.5-59.225h59.56v-1h-59.56v1zm-59.06 59.225v-59.725h-1v59.725h1zm-.5-59.225h59.56v-1h-59.56v1zm-59.06 59.225v-59.725h-1v59.725h1zm-.5-59.225h59.56v-1h-59.56v1zm-59.06 59.225v-59.725h-1v59.725h1zm-.5-59.225h59.56v-1h-59.56v1zm-59.06 59.225v-59.725h-1v59.725h1zm-.5-59.225h59.56v-1h-59.56v1zm-59.06 59.225v-59.725h-1v59.725h1zm-.5-59.225h59.56v-1h-59.56v1zm-59.06 59.225v-59.725h-1v59.725h1zm-.5-59.225h59.56v-1h-59.56v1zm-59.06 59.225v-59.725h-1v59.725h1zm-.5-59.225h59.56v-1h-59.56v1zm-59.06 59.225v-59.725h-1v59.725h1zm-.5-59.225h59.56v-1H749.4v1zm-59.06 59.225v-59.725h-1v59.725h1zm-.5-59.225h59.56v-1h-59.56v1zm-59.06 59.225v-59.725h-1v59.725h1zm-.5-59.225h59.56v-1h-59.56v1zm-59.06 59.225v-59.725h-1v59.725h1zm-.5-59.225h59.56v-1h-59.56v1zm-59.06 59.225v-59.725h-1v59.725h1zm-.5-59.225h59.56v-1h-59.56v1zm-59.06 59.225v-59.725h-1v59.725h1zm-.5-59.225h59.56v-1H451.6v1zm-59.06 59.225v-59.725h-1v59.725h1zm-.5-59.225h59.56v-1h-59.56v1zm-59.06 59.225v-59.725h-1v59.725h1zm-.5-59.225h59.56v-1h-59.56v1zm-59.06 59.225v-59.725h-1v59.725h1zm-.5-59.225h59.56v-1h-59.56v1zm-59.06 59.225v-59.725h-1v59.725h1zm-.5-59.225h59.56v-1h-59.56v1zm-59.06 59.225v-59.725h-1v59.725h1zm-.5-59.225h59.56v-1H153.8v1zm-59.06 59.225v-59.725h-1v59.725h1zm-.5-59.225h59.56v-1H94.24v1zm-59.06 59.225v-59.725h-1v59.725h1zm-.5-59.225h59.56v-1H34.68v1zm-59.06 59.225v-59.725h-1v59.725h1zm-.5-59.225h59.56v-1h-59.56v1zm-59.06 59.225v-59.725h-1v59.725h1zm-.5-59.225h59.56v-1h-59.56v1zm-59.56 0h59.56v-1H-144v1zm1429.94-.5v-59.725h-1v59.725h1zm-.5-59.225H1345v-1h-59.56v1zm-59.06 59.225v-59.725h-1v59.725h1zm-.5-59.225h59.56v-1h-59.56v1zm-59.06 59.225v-59.725h-1v59.725h1zm-.5-59.225h59.56v-1h-59.56v1zm-59.06 59.225v-59.725h-1v59.725h1zm-.5-59.225h59.56v-1h-59.56v1zm-59.06 59.225v-59.725h-1v59.725h1zm-.5-59.225h59.56v-1h-59.56v1zm-59.06 59.225v-59.725h-1v59.725h1zm-.5-59.225h59.56v-1h-59.56v1zm-59.06 59.225v-59.725h-1v59.725h1zm-.5-59.225h59.56v-1h-59.56v1zm-59.06 59.225v-59.725h-1v59.725h1zm-.5-59.225h59.56v-1h-59.56v1zm-59.06 59.225v-59.725h-1v59.725h1zm-.5-59.225h59.56v-1h-59.56v1zm-59.06 59.225v-59.725h-1v59.725h1zm-.5-59.225h59.56v-1H749.4v1zm-59.06 59.225v-59.725h-1v59.725h1zm-.5-59.225h59.56v-1h-59.56v1zm-59.06 59.225v-59.725h-1v59.725h1zm-.5-59.225h59.56v-1h-59.56v1zm-59.06 59.225v-59.725h-1v59.725h1zm-.5-59.225h59.56v-1h-59.56v1zm-59.06 59.225v-59.725h-1v59.725h1zm-.5-59.225h59.56v-1h-59.56v1zm-59.06 59.225v-59.725h-1v59.725h1zm-.5-59.225h59.56v-1H451.6v1zm-59.06 59.225v-59.725h-1v59.725h1zm-.5-59.225h59.56v-1h-59.56v1zm-59.06 59.225v-59.725h-1v59.725h1zm-.5-59.225h59.56v-1h-59.56v1zm-59.06 59.225v-59.725h-1v59.725h1zm-.5-59.225h59.56v-1h-59.56v1zm-59.06 59.225v-59.725h-1v59.725h1zm-.5-59.225h59.56v-1h-59.56v1zm-59.06 59.225v-59.725h-1v59.725h1zm-.5-59.225h59.56v-1H153.8v1zm-59.06 59.225v-59.725h-1v59.725h1zm-.5-59.225h59.56v-1H94.24v1zm-59.06 59.225v-59.725h-1v59.725h1zm-.5-59.225h59.56v-1H34.68v1zm-59.06 59.225v-59.725h-1v59.725h1zm-.5-59.225h59.56v-1h-59.56v1zm-59.06 59.225v-59.725h-1v59.725h1zm-.5-59.225h59.56v-1h-59.56v1zm-59.56 0h59.56v-1H-144v1zm1429.94-.5V612.02h-1v59.726h1zm-.5-59.226H1345v-1h-59.56v1zm-59.06 59.226V612.02h-1v59.726h1zm-.5-59.226h59.56v-1h-59.56v1zm-59.06 59.226V612.02h-1v59.726h1zm-.5-59.226h59.56v-1h-59.56v1zm-59.06 59.226V612.02h-1v59.726h1zm-.5-59.226h59.56v-1h-59.56v1zm-59.06 59.226V612.02h-1v59.726h1zm-.5-59.226h59.56v-1h-59.56v1zm-59.06 59.226V612.02h-1v59.726h1zm-.5-59.226h59.56v-1h-59.56v1zm-59.06 59.226V612.02h-1v59.726h1zm-.5-59.226h59.56v-1h-59.56v1zm-59.06 59.226V612.02h-1v59.726h1zm-.5-59.226h59.56v-1h-59.56v1zm-59.06 59.226V612.02h-1v59.726h1zm-.5-59.226h59.56v-1h-59.56v1zm-59.06 59.226V612.02h-1v59.726h1zm-.5-59.226h59.56v-1H749.4v1zm-59.06 59.226V612.02h-1v59.726h1zm-.5-59.226h59.56v-1h-59.56v1zm-59.06 59.226V612.02h-1v59.726h1zm-.5-59.226h59.56v-1h-59.56v1zm-59.06 59.226V612.02h-1v59.726h1zm-.5-59.226h59.56v-1h-59.56v1zm-59.06 59.226V612.02h-1v59.726h1zm-.5-59.226h59.56v-1h-59.56v1zm-59.06 59.226V612.02h-1v59.726h1zm-.5-59.226h59.56v-1H451.6v1zm-59.06 59.226V612.02h-1v59.726h1zm-.5-59.226h59.56v-1h-59.56v1zm-59.06 59.226V612.02h-1v59.726h1zm-.5-59.226h59.56v-1h-59.56v1zm-59.06 59.226V612.02h-1v59.726h1zm-.5-59.226h59.56v-1h-59.56v1zm-59.06 59.226V612.02h-1v59.726h1zm-.5-59.226h59.56v-1h-59.56v1zm-59.06 59.226V612.02h-1v59.726h1zm-.5-59.226h59.56v-1H153.8v1zm-59.06 59.226V612.02h-1v59.726h1zm-.5-59.226h59.56v-1H94.24v1zm-59.06 59.226V612.02h-1v59.726h1zm-.5-59.226h59.56v-1H34.68v1zm-59.06 59.226V612.02h-1v59.726h1zm-.5-59.226h59.56v-1h-59.56v1zm-59.06 59.226V612.02h-1v59.726h1zm-.5-59.226h59.56v-1h-59.56v1zm-59.56 0h59.56v-1H-144v1zm1429.94-.5v-59.725h-1v59.725h1zm-.5-59.225H1345v-1h-59.56v1zm-59.06 59.225v-59.725h-1v59.725h1zm-.5-59.225h59.56v-1h-59.56v1zm-59.06 59.225v-59.725h-1v59.725h1zm-.5-59.225h59.56v-1h-59.56v1zm-59.06 59.225v-59.725h-1v59.725h1zm-.5-59.225h59.56v-1h-59.56v1zm-59.06 59.225v-59.725h-1v59.725h1zm-.5-59.225h59.56v-1h-59.56v1zm-59.06 59.225v-59.725h-1v59.725h1zm-.5-59.225h59.56v-1h-59.56v1zm-59.06 59.225v-59.725h-1v59.725h1zm-.5-59.225h59.56v-1h-59.56v1zm-59.06 59.225v-59.725h-1v59.725h1zm-.5-59.225h59.56v-1h-59.56v1zm-59.06 59.225v-59.725h-1v59.725h1zm-.5-59.225h59.56v-1h-59.56v1zM749.9 612.02v-59.725h-1v59.725h1zm-.5-59.225h59.56v-1H749.4v1zm-59.06 59.225v-59.725h-1v59.725h1zm-.5-59.225h59.56v-1h-59.56v1zm-59.06 59.225v-59.725h-1v59.725h1zm-.5-59.225h59.56v-1h-59.56v1zm-59.06 59.225v-59.725h-1v59.725h1zm-.5-59.225h59.56v-1h-59.56v1zm-59.06 59.225v-59.725h-1v59.725h1zm-.5-59.225h59.56v-1h-59.56v1zM452.1 612.02v-59.725h-1v59.725h1zm-.5-59.225h59.56v-1H451.6v1zm-59.06 59.225v-59.725h-1v59.725h1zm-.5-59.225h59.56v-1h-59.56v1zm-59.06 59.225v-59.725h-1v59.725h1zm-.5-59.225h59.56v-1h-59.56v1zm-59.06 59.225v-59.725h-1v59.725h1zm-.5-59.225h59.56v-1h-59.56v1zm-59.06 59.225v-59.725h-1v59.725h1zm-.5-59.225h59.56v-1h-59.56v1zM154.3 612.02v-59.725h-1v59.725h1zm-.5-59.225h59.56v-1H153.8v1zM94.74 612.02v-59.725h-1v59.725h1zm-.5-59.225h59.56v-1H94.24v1zM35.18 612.02v-59.725h-1v59.725h1zm-.5-59.225h59.56v-1H34.68v1zm-59.06 59.225v-59.725h-1v59.725h1zm-.5-59.225h59.56v-1h-59.56v1zm-59.06 59.225v-59.725h-1v59.725h1zm-.5-59.225h59.56v-1h-59.56v1zm-59.56 0h59.56v-1H-144v1zm1429.94-.5v-59.726h-1v59.726h1zm-.5-59.226H1345v-1h-59.56v1zm-59.06 59.226v-59.726h-1v59.726h1zm-.5-59.226h59.56v-1h-59.56v1zm-59.06 59.226v-59.726h-1v59.726h1zm-.5-59.226h59.56v-1h-59.56v1zm-59.06 59.226v-59.726h-1v59.726h1zm-.5-59.226h59.56v-1h-59.56v1zm-59.06 59.226v-59.726h-1v59.726h1zm-.5-59.226h59.56v-1h-59.56v1zm-59.06 59.226v-59.726h-1v59.726h1zm-.5-59.226h59.56v-1h-59.56v1zm-59.06 59.226v-59.726h-1v59.726h1zm-.5-59.226h59.56v-1h-59.56v1zm-59.06 59.226v-59.726h-1v59.726h1zm-.5-59.226h59.56v-1h-59.56v1zm-59.06 59.226v-59.726h-1v59.726h1zm-.5-59.226h59.56v-1h-59.56v1zm-59.06 59.226v-59.726h-1v59.726h1zm-.5-59.226h59.56v-1H749.4v1zm-59.06 59.226v-59.726h-1v59.726h1zm-.5-59.226h59.56v-1h-59.56v1zm-59.06 59.226v-59.726h-1v59.726h1zm-.5-59.226h59.56v-1h-59.56v1zm-59.06 59.226v-59.726h-1v59.726h1zm-.5-59.226h59.56v-1h-59.56v1zm-59.06 59.226v-59.726h-1v59.726h1zm-.5-59.226h59.56v-1h-59.56v1zm-59.06 59.226v-59.726h-1v59.726h1zm-.5-59.226h59.56v-1H451.6v1zm-59.06 59.226v-59.726h-1v59.726h1zm-.5-59.226h59.56v-1h-59.56v1zm-59.06 59.226v-59.726h-1v59.726h1zm-.5-59.226h59.56v-1h-59.56v1zm-59.06 59.226v-59.726h-1v59.726h1zm-.5-59.226h59.56v-1h-59.56v1zm-59.06 59.226v-59.726h-1v59.726h1zm-.5-59.226h59.56v-1h-59.56v1zm-59.06 59.226v-59.726h-1v59.726h1zm-.5-59.226h59.56v-1H153.8v1zm-59.06 59.226v-59.726h-1v59.726h1zm-.5-59.226h59.56v-1H94.24v1zm-59.06 59.226v-59.726h-1v59.726h1zm-.5-59.226h59.56v-1H34.68v1zm-59.06 59.226v-59.726h-1v59.726h1zm-.5-59.226h59.56v-1h-59.56v1zm-59.06 59.226v-59.726h-1v59.726h1zm-.5-59.226h59.56v-1h-59.56v1zm-59.56 0h59.56v-1H-144v1zm1429.94-.5v-59.725h-1v59.725h1zm-.5-59.225H1345v-1h-59.56v1zm-59.06 59.225v-59.725h-1v59.725h1zm-.5-59.225h59.56v-1h-59.56v1zm-59.06 59.225v-59.725h-1v59.725h1zm-.5-59.225h59.56v-1h-59.56v1zm-59.06 59.225v-59.725h-1v59.725h1zm-.5-59.225h59.56v-1h-59.56v1zm-59.06 59.225v-59.725h-1v59.725h1zm-.5-59.225h59.56v-1h-59.56v1zm-59.06 59.225v-59.725h-1v59.725h1zm-.5-59.225h59.56v-1h-59.56v1zm-59.06 59.225v-59.725h-1v59.725h1zm-.5-59.225h59.56v-1h-59.56v1zm-59.06 59.225v-59.725h-1v59.725h1zm-.5-59.225h59.56v-1h-59.56v1zm-59.06 59.225v-59.725h-1v59.725h1zm-.5-59.225h59.56v-1h-59.56v1zm-59.06 59.225v-59.725h-1v59.725h1zm-.5-59.225h59.56v-1H749.4v1zm-59.06 59.225v-59.725h-1v59.725h1zm-.5-59.225h59.56v-1h-59.56v1zm-59.06 59.225v-59.725h-1v59.725h1zm-.5-59.225h59.56v-1h-59.56v1zm-59.06 59.225v-59.725h-1v59.725h1zm-.5-59.225h59.56v-1h-59.56v1zm-59.06 59.225v-59.725h-1v59.725h1zm-.5-59.225h59.56v-1h-59.56v1zm-59.06 59.225v-59.725h-1v59.725h1zm-.5-59.225h59.56v-1H451.6v1zm-59.06 59.225v-59.725h-1v59.725h1zm-.5-59.225h59.56v-1h-59.56v1zm-59.06 59.225v-59.725h-1v59.725h1zm-.5-59.225h59.56v-1h-59.56v1zm-59.06 59.225v-59.725h-1v59.725h1zm-.5-59.225h59.56v-1h-59.56v1zm-59.06 59.225v-59.725h-1v59.725h1zm-.5-59.225h59.56v-1h-59.56v1zm-59.06 59.225v-59.725h-1v59.725h1zm-.5-59.225h59.56v-1H153.8v1zm-59.06 59.225v-59.725h-1v59.725h1zm-.5-59.225h59.56v-1H94.24v1zm-59.06 59.225v-59.725h-1v59.725h1zm-.5-59.225h59.56v-1H34.68v1zm-59.06 59.225v-59.725h-1v59.725h1zm-.5-59.225h59.56v-1h-59.56v1zm-59.06 59.225v-59.725h-1v59.725h1zm-.5-59.225h59.56v-1h-59.56v1zm-59.56 0h59.56v-1H-144v1zm1429.94-.5v-59.726h-1v59.726h1zm-.5-59.226H1345v-1h-59.56v1zm-59.06 59.226v-59.726h-1v59.726h1zm-.5-59.226h59.56v-1h-59.56v1zm-59.06 59.226v-59.726h-1v59.726h1zm-.5-59.226h59.56v-1h-59.56v1zm-59.06 59.226v-59.726h-1v59.726h1zm-.5-59.226h59.56v-1h-59.56v1zm-59.06 59.226v-59.726h-1v59.726h1zm-.5-59.226h59.56v-1h-59.56v1zm-59.06 59.226v-59.726h-1v59.726h1zm-.5-59.226h59.56v-1h-59.56v1zm-59.06 59.226v-59.726h-1v59.726h1zm-.5-59.226h59.56v-1h-59.56v1zm-59.06 59.226v-59.726h-1v59.726h1zm-.5-59.226h59.56v-1h-59.56v1zm-59.06 59.226v-59.726h-1v59.726h1zm-.5-59.226h59.56v-1h-59.56v1zm-59.06 59.226v-59.726h-1v59.726h1zm-.5-59.226h59.56v-1H749.4v1zm-59.06 59.226v-59.726h-1v59.726h1zm-.5-59.226h59.56v-1h-59.56v1zm-59.06 59.226v-59.726h-1v59.726h1zm-.5-59.226h59.56v-1h-59.56v1zm-59.06 59.226v-59.726h-1v59.726h1zm-.5-59.226h59.56v-1h-59.56v1zm-59.06 59.226v-59.726h-1v59.726h1zm-.5-59.226h59.56v-1h-59.56v1zm-59.06 59.226v-59.726h-1v59.726h1zm-.5-59.226h59.56v-1H451.6v1zm-59.06 59.226v-59.726h-1v59.726h1zm-.5-59.226h59.56v-1h-59.56v1zm-59.06 59.226v-59.726h-1v59.726h1zm-.5-59.226h59.56v-1h-59.56v1zm-59.06 59.226v-59.726h-1v59.726h1zm-.5-59.226h59.56v-1h-59.56v1zm-59.06 59.226v-59.726h-1v59.726h1zm-.5-59.226h59.56v-1h-59.56v1zm-59.06 59.226v-59.726h-1v59.726h1zm-.5-59.226h59.56v-1H153.8v1zm-59.06 59.226v-59.726h-1v59.726h1zm-.5-59.226h59.56v-1H94.24v1zm-59.06 59.226v-59.726h-1v59.726h1zm-.5-59.226h59.56v-1H34.68v1zm-59.06 59.226v-59.726h-1v59.726h1zm-.5-59.226h59.56v-1h-59.56v1zm-59.06 59.226v-59.726h-1v59.726h1zm-.5-59.226h59.56v-1h-59.56v1zm-59.56 0h59.56v-1H-144v1zm1429.94-.5v-59.725h-1v59.725h1zm-.5-59.225H1345v-1h-59.56v1zm-59.06 59.225v-59.725h-1v59.725h1zm-.5-59.225h59.56v-1h-59.56v1zm-59.06 59.225v-59.725h-1v59.725h1zm-.5-59.225h59.56v-1h-59.56v1zm-59.06 59.225v-59.725h-1v59.725h1zm-.5-59.225h59.56v-1h-59.56v1zm-59.06 59.225v-59.725h-1v59.725h1zm-.5-59.225h59.56v-1h-59.56v1zm-59.06 59.225v-59.725h-1v59.725h1zm-.5-59.225h59.56v-1h-59.56v1zm-59.06 59.225v-59.725h-1v59.725h1zm-.5-59.225h59.56v-1h-59.56v1zm-59.06 59.225v-59.725h-1v59.725h1zm-.5-59.225h59.56v-1h-59.56v1zm-59.06 59.225v-59.725h-1v59.725h1zm-.5-59.225h59.56v-1h-59.56v1zm-59.06 59.225v-59.725h-1v59.725h1zm-.5-59.225h59.56v-1H749.4v1zm-59.06 59.225v-59.725h-1v59.725h1zm-.5-59.225h59.56v-1h-59.56v1zm-59.06 59.225v-59.725h-1v59.725h1zm-.5-59.225h59.56v-1h-59.56v1zm-59.06 59.225v-59.725h-1v59.725h1zm-.5-59.225h59.56v-1h-59.56v1zm-59.06 59.225v-59.725h-1v59.725h1zm-.5-59.225h59.56v-1h-59.56v1zm-59.06 59.225v-59.725h-1v59.725h1zm-.5-59.225h59.56v-1H451.6v1zm-59.06 59.225v-59.725h-1v59.725h1zm-.5-59.225h59.56v-1h-59.56v1zm-59.06 59.225v-59.725h-1v59.725h1zm-.5-59.225h59.56v-1h-59.56v1zm-59.06 59.225v-59.725h-1v59.725h1zm-.5-59.225h59.56v-1h-59.56v1zm-59.06 59.225v-59.725h-1v59.725h1zm-.5-59.225h59.56v-1h-59.56v1zm-59.06 59.225v-59.725h-1v59.725h1zm-.5-59.225h59.56v-1H153.8v1zm-59.06 59.225v-59.725h-1v59.725h1zm-.5-59.225h59.56v-1H94.24v1zm-59.06 59.225v-59.725h-1v59.725h1zm-.5-59.225h59.56v-1H34.68v1zm-59.06 59.225v-59.725h-1v59.725h1zm-.5-59.225h59.56v-1h-59.56v1zm-59.06 59.225v-59.725h-1v59.725h1zm-.5-59.225h59.56v-1h-59.56v1zm-59.56 0h59.56v-1H-144v1zm1429.94-.5v-59.726h-1v59.726h1zm-.5-59.226H1345v-1h-59.56v1zm-59.06 59.226v-59.726h-1v59.726h1zm-.5-59.226h59.56v-1h-59.56v1zm-59.06 59.226v-59.726h-1v59.726h1zm-.5-59.226h59.56v-1h-59.56v1zm-59.06 59.226v-59.726h-1v59.726h1zm-.5-59.226h59.56v-1h-59.56v1zm-59.06 59.226v-59.726h-1v59.726h1zm-.5-59.226h59.56v-1h-59.56v1zm-59.06 59.226v-59.726h-1v59.726h1zm-.5-59.226h59.56v-1h-59.56v1zm-59.06 59.226v-59.726h-1v59.726h1zm-.5-59.226h59.56v-1h-59.56v1zm-59.06 59.226v-59.726h-1v59.726h1zm-.5-59.226h59.56v-1h-59.56v1zm-59.06 59.226v-59.726h-1v59.726h1zm-.5-59.226h59.56v-1h-59.56v1zm-59.06 59.226v-59.726h-1v59.726h1zm-.5-59.226h59.56v-1H749.4v1zm-59.06 59.226v-59.726h-1v59.726h1zm-.5-59.226h59.56v-1h-59.56v1zm-59.06 59.226v-59.726h-1v59.726h1zm-.5-59.226h59.56v-1h-59.56v1zm-59.06 59.226v-59.726h-1v59.726h1zm-.5-59.226h59.56v-1h-59.56v1zm-59.06 59.226v-59.726h-1v59.726h1zm-.5-59.226h59.56v-1h-59.56v1zm-59.06 59.226v-59.726h-1v59.726h1zm-.5-59.226h59.56v-1H451.6v1zm-59.06 59.226v-59.726h-1v59.726h1zm-.5-59.226h59.56v-1h-59.56v1zm-59.06 59.226v-59.726h-1v59.726h1zm-.5-59.226h59.56v-1h-59.56v1zm-59.06 59.226v-59.726h-1v59.726h1zm-.5-59.226h59.56v-1h-59.56v1zm-59.06 59.226v-59.726h-1v59.726h1zm-.5-59.226h59.56v-1h-59.56v1zm-59.06 59.226v-59.726h-1v59.726h1zm-.5-59.226h59.56v-1H153.8v1zm-59.06 59.226v-59.726h-1v59.726h1zm-.5-59.226h59.56v-1H94.24v1zm-59.06 59.226v-59.726h-1v59.726h1zm-.5-59.226h59.56v-1H34.68v1zm-59.06 59.226v-59.726h-1v59.726h1zm-.5-59.226h59.56v-1h-59.56v1zm-59.06 59.226v-59.726h-1v59.726h1zm-.5-59.226h59.56v-1h-59.56v1zm-59.56 0h59.56v-1H-144v1zm1429.94-.5v-59.725h-1v59.725h1zm-.5-59.225H1345v-1h-59.56v1zm-59.06 59.225v-59.725h-1v59.725h1zm-.5-59.225h59.56v-1h-59.56v1zm-59.06 59.225v-59.725h-1v59.725h1zm-.5-59.225h59.56v-1h-59.56v1zm-59.06 59.225v-59.725h-1v59.725h1zm-.5-59.225h59.56v-1h-59.56v1zm-59.06 59.225v-59.725h-1v59.725h1zm-.5-59.225h59.56v-1h-59.56v1zm-59.06 59.225v-59.725h-1v59.725h1zm-.5-59.225h59.56v-1h-59.56v1zm-59.06 59.225v-59.725h-1v59.725h1zm-.5-59.225h59.56v-1h-59.56v1zm-59.06 59.225v-59.725h-1v59.725h1zm-.5-59.225h59.56v-1h-59.56v1zm-59.06 59.225v-59.725h-1v59.725h1zm-.5-59.225h59.56v-1h-59.56v1zm-59.06 59.225v-59.725h-1v59.725h1zm-.5-59.225h59.56v-1H749.4v1zm-59.06 59.225v-59.725h-1v59.725h1zm-.5-59.225h59.56v-1h-59.56v1zm-59.06 59.225v-59.725h-1v59.725h1zm-.5-59.225h59.56v-1h-59.56v1zm-59.06 59.225v-59.725h-1v59.725h1zm-.5-59.225h59.56v-1h-59.56v1zm-59.06 59.225v-59.725h-1v59.725h1zm-.5-59.225h59.56v-1h-59.56v1zm-59.06 59.225v-59.725h-1v59.725h1zm-.5-59.225h59.56v-1H451.6v1zm-59.06 59.225v-59.725h-1v59.725h1zm-.5-59.225h59.56v-1h-59.56v1zm-59.06 59.225v-59.725h-1v59.725h1zm-.5-59.225h59.56v-1h-59.56v1zm-59.06 59.225v-59.725h-1v59.725h1zm-.5-59.225h59.56v-1h-59.56v1zm-59.06 59.225v-59.725h-1v59.725h1zm-.5-59.225h59.56v-1h-59.56v1zm-59.06 59.225v-59.725h-1v59.725h1zm-.5-59.225h59.56v-1H153.8v1zm-59.06 59.225v-59.725h-1v59.725h1zm-.5-59.225h59.56v-1H94.24v1zm-59.06 59.225v-59.725h-1v59.725h1zm-.5-59.225h59.56v-1H34.68v1zm-59.06 59.225v-59.725h-1v59.725h1zm-.5-59.225h59.56v-1h-59.56v1zm-59.06 59.225v-59.725h-1v59.725h1zm-.5-59.225h59.56v-1h-59.56v1zm-59.56 0h59.56v-1H-144v1zm1429.94-.5v-59.726h-1v59.726h1zm-.5-59.226H1345v-1h-59.56v1zm-59.06 59.226v-59.726h-1v59.726h1zm-.5-59.226h59.56v-1h-59.56v1zm-59.06 59.226v-59.726h-1v59.726h1zm-.5-59.226h59.56v-1h-59.56v1zm-59.06 59.226v-59.726h-1v59.726h1zm-.5-59.226h59.56v-1h-59.56v1zm-59.06 59.226v-59.726h-1v59.726h1zm-.5-59.226h59.56v-1h-59.56v1zm-59.06 59.226v-59.726h-1v59.726h1zm-.5-59.226h59.56v-1h-59.56v1zm-59.06 59.226v-59.726h-1v59.726h1zm-.5-59.226h59.56v-1h-59.56v1zm-59.06 59.226v-59.726h-1v59.726h1zm-.5-59.226h59.56v-1h-59.56v1zm-59.06 59.226v-59.726h-1v59.726h1zm-.5-59.226h59.56v-1h-59.56v1zm-59.06 59.226v-59.726h-1v59.726h1zm-.5-59.226h59.56v-1H749.4v1zm-59.06 59.226v-59.726h-1v59.726h1zm-.5-59.226h59.56v-1h-59.56v1zm-59.06 59.226v-59.726h-1v59.726h1zm-.5-59.226h59.56v-1h-59.56v1zm-59.06 59.226v-59.726h-1v59.726h1zm-.5-59.226h59.56v-1h-59.56v1zm-59.06 59.226v-59.726h-1v59.726h1zm-.5-59.226h59.56v-1h-59.56v1zm-59.06 59.226v-59.726h-1v59.726h1zm-.5-59.226h59.56v-1H451.6v1zm-59.06 59.226v-59.726h-1v59.726h1zm-.5-59.226h59.56v-1h-59.56v1zm-59.06 59.226v-59.726h-1v59.726h1zm-.5-59.226h59.56v-1h-59.56v1zm-59.06 59.226v-59.726h-1v59.726h1zm-.5-59.226h59.56v-1h-59.56v1zm-59.06 59.226v-59.726h-1v59.726h1zm-.5-59.226h59.56v-1h-59.56v1zm-59.06 59.226v-59.726h-1v59.726h1zm-.5-59.226h59.56v-1H153.8v1zm-59.06 59.226v-59.726h-1v59.726h1zm-.5-59.226h59.56v-1H94.24v1zm-59.06 59.226v-59.726h-1v59.726h1zm-.5-59.226h59.56v-1H34.68v1zm-59.06 59.226v-59.726h-1v59.726h1zm-.5-59.226h59.56v-1h-59.56v1zm-59.06 59.226v-59.726h-1v59.726h1zm-.5-59.226h59.56v-1h-59.56v1zm-59.56 0h59.56v-1H-144v1zm1429.94-.5V74.491h-1v59.725h1zm-.5-59.225H1345v-1h-59.56v1zm-59.06 59.225V74.491h-1v59.725h1zm-.5-59.225h59.56v-1h-59.56v1zm-59.06 59.225V74.491h-1v59.725h1zm-.5-59.225h59.56v-1h-59.56v1zm-59.06 59.225V74.491h-1v59.725h1zm-.5-59.225h59.56v-1h-59.56v1zm-59.06 59.225V74.491h-1v59.725h1zm-.5-59.225h59.56v-1h-59.56v1zm-59.06 59.225V74.491h-1v59.725h1zm-.5-59.225h59.56v-1h-59.56v1zm-59.06 59.225V74.491h-1v59.725h1zm-.5-59.225h59.56v-1h-59.56v1zm-59.06 59.225V74.491h-1v59.725h1zm-.5-59.225h59.56v-1h-59.56v1zm-59.06 59.225V74.491h-1v59.725h1zm-.5-59.225h59.56v-1h-59.56v1zm-59.06 59.225V74.491h-1v59.725h1zm-.5-59.225h59.56v-1H749.4v1zm-59.06 59.225V74.491h-1v59.725h1zm-.5-59.225h59.56v-1h-59.56v1zm-59.06 59.225V74.491h-1v59.725h1zm-.5-59.225h59.56v-1h-59.56v1zm-59.06 59.225V74.491h-1v59.725h1zm-.5-59.225h59.56v-1h-59.56v1zm-59.06 59.225V74.491h-1v59.725h1zm-.5-59.225h59.56v-1h-59.56v1zm-59.06 59.225V74.491h-1v59.725h1zm-.5-59.225h59.56v-1H451.6v1zm-59.06 59.225V74.491h-1v59.725h1zm-.5-59.225h59.56v-1h-59.56v1zm-59.06 59.225V74.491h-1v59.725h1zm-.5-59.225h59.56v-1h-59.56v1zm-59.06 59.225V74.491h-1v59.725h1zm-.5-59.225h59.56v-1h-59.56v1zm-59.06 59.225V74.491h-1v59.725h1zm-.5-59.225h59.56v-1h-59.56v1zm-59.06 59.225V74.491h-1v59.725h1zm-.5-59.225h59.56v-1H153.8v1zm-59.06 59.225V74.491h-1v59.725h1zm-.5-59.225h59.56v-1H94.24v1zm-59.06 59.225V74.491h-1v59.725h1zm-.5-59.225h59.56v-1H34.68v1zm-59.06 59.225V74.491h-1v59.725h1zm-.5-59.225h59.56v-1h-59.56v1zm-59.06 59.225V74.491h-1v59.725h1zm-.5-59.225h59.56v-1h-59.56v1zm-59.56 0h59.56v-1H-144v1zm1429.94-.5V14.766h-1V74.49h1zm-.5-59.225H1345v-1h-59.56v1zm-59.06 59.225V14.766h-1V74.49h1zm-.5-59.225h59.56v-1h-59.56v1zm-59.06 59.225V14.766h-1V74.49h1zm-.5-59.225h59.56v-1h-59.56v1zm-59.06 59.225V14.766h-1V74.49h1zm-.5-59.225h59.56v-1h-59.56v1zM1047.7 74.49V14.766h-1V74.49h1zm-.5-59.225h59.56v-1h-59.56v1zM988.14 74.49V14.766h-1V74.49h1zm-.5-59.225h59.56v-1h-59.56v1zM928.58 74.49V14.766h-1V74.49h1zm-.5-59.225h59.56v-1h-59.56v1zM869.02 74.49V14.766h-1V74.49h1zm-.5-59.225h59.56v-1h-59.56v1zM809.46 74.49V14.766h-1V74.49h1zm-.5-59.225h59.56v-1h-59.56v1zM749.9 74.49V14.766h-1V74.49h1zm-.5-59.225h59.56v-1H749.4v1zM690.34 74.49V14.766h-1V74.49h1zm-.5-59.225h59.56v-1h-59.56v1zM630.78 74.49V14.766h-1V74.49h1zm-.5-59.225h59.56v-1h-59.56v1zM571.22 74.49V14.766h-1V74.49h1zm-.5-59.225h59.56v-1h-59.56v1zM511.66 74.49V14.766h-1V74.49h1zm-.5-59.225h59.56v-1h-59.56v1zM452.1 74.49V14.766h-1V74.49h1zm-.5-59.225h59.56v-1H451.6v1zM392.54 74.49V14.766h-1V74.49h1zm-.5-59.225h59.56v-1h-59.56v1zM332.98 74.49V14.766h-1V74.49h1zm-.5-59.225h59.56v-1h-59.56v1zM273.42 74.49V14.766h-1V74.49h1zm-.5-59.225h59.56v-1h-59.56v1zM213.86 74.49V14.766h-1V74.49h1zm-.5-59.225h59.56v-1h-59.56v1zM154.3 74.49V14.766h-1V74.49h1zm-.5-59.225h59.56v-1H153.8v1zM94.74 74.49V14.766h-1V74.49h1zm-.5-59.225h59.56v-1H94.24v1zM35.18 74.49V14.766h-1V74.49h1zm-.5-59.225h59.56v-1H34.68v1zM-24.38 74.49V14.766h-1V74.49h1zm-.5-59.225h59.56v-1h-59.56v1zM-83.94 74.49V14.766h-1V74.49h1zm-.5-59.225h59.56v-1h-59.56v1zm-59.56 0h59.56v-1H-144v1zm1429.94-.5V-44.96h-1v59.726h1zm-.5-59.226H1345v-1h-59.56v1zm-59.06 59.226V-44.96h-1v59.726h1zm-.5-59.226h59.56v-1h-59.56v1zm-59.06 59.226V-44.96h-1v59.726h1zm-.5-59.226h59.56v-1h-59.56v1zm-59.06 59.226V-44.96h-1v59.726h1zm-.5-59.226h59.56v-1h-59.56v1zm-59.06 59.226V-44.96h-1v59.726h1zm-.5-59.226h59.56v-1h-59.56v1zm-59.06 59.226V-44.96h-1v59.726h1zm-.5-59.226h59.56v-1h-59.56v1zm-59.06 59.226V-44.96h-1v59.726h1zm-.5-59.226h59.56v-1h-59.56v1zm-59.06 59.226V-44.96h-1v59.726h1zm-.5-59.226h59.56v-1h-59.56v1zm-59.06 59.226V-44.96h-1v59.726h1zm-.5-59.226h59.56v-1h-59.56v1zM749.9 14.766V-44.96h-1v59.726h1zm-.5-59.226h59.56v-1H749.4v1zm-59.06 59.226V-44.96h-1v59.726h1zm-.5-59.226h59.56v-1h-59.56v1zm-59.06 59.226V-44.96h-1v59.726h1zm-.5-59.226h59.56v-1h-59.56v1zm-59.06 59.226V-44.96h-1v59.726h1zm-.5-59.226h59.56v-1h-59.56v1zm-59.06 59.226V-44.96h-1v59.726h1zm-.5-59.226h59.56v-1h-59.56v1zM452.1 14.766V-44.96h-1v59.726h1zm-.5-59.226h59.56v-1H451.6v1zm-59.06 59.226V-44.96h-1v59.726h1zm-.5-59.226h59.56v-1h-59.56v1zm-59.06 59.226V-44.96h-1v59.726h1zm-.5-59.226h59.56v-1h-59.56v1zm-59.06 59.226V-44.96h-1v59.726h1zm-.5-59.226h59.56v-1h-59.56v1zm-59.06 59.226V-44.96h-1v59.726h1zm-.5-59.226h59.56v-1h-59.56v1zM154.3 14.766V-44.96h-1v59.726h1zm-.5-59.226h59.56v-1H153.8v1zM94.74 14.766V-44.96h-1v59.726h1zm-.5-59.226h59.56v-1H94.24v1zM35.18 14.766V-44.96h-1v59.726h1zm-.5-59.226h59.56v-1H34.68v1zm-59.06 59.226V-44.96h-1v59.726h1zm-.5-59.226h59.56v-1h-59.56v1zm-59.06 59.226V-44.96h-1v59.726h1zm-.5-59.226h59.56v-1h-59.56v1zm-59.56 0h59.56v-1H-144v1zm1429.94-.5v-59.725h-1v59.725h1zm-.5-59.225H1345v-1h-59.56v1zm-59.06 59.225v-59.725h-1v59.725h1zm-.5-59.225h59.56v-1h-59.56v1zm-59.06 59.225v-59.725h-1v59.725h1zm-.5-59.225h59.56v-1h-59.56v1zm-59.06 59.225v-59.725h-1v59.725h1zm-.5-59.225h59.56v-1h-59.56v1zM1047.7-44.96v-59.725h-1v59.725h1zm-.5-59.225h59.56v-1h-59.56v1zM988.14-44.96v-59.725h-1v59.725h1zm-.5-59.225h59.56v-1h-59.56v1zM928.58-44.96v-59.725h-1v59.725h1zm-.5-59.225h59.56v-1h-59.56v1zM869.02-44.96v-59.725h-1v59.725h1zm-.5-59.225h59.56v-1h-59.56v1zM809.46-44.96v-59.725h-1v59.725h1zm-.5-59.225h59.56v-1h-59.56v1zM749.9-44.96v-59.725h-1v59.725h1zm-.5-59.225h59.56v-1H749.4v1zM690.34-44.96v-59.725h-1v59.725h1zm-.5-59.225h59.56v-1h-59.56v1zM630.78-44.96v-59.725h-1v59.725h1zm-.5-59.225h59.56v-1h-59.56v1zM571.22-44.96v-59.725h-1v59.725h1zm-.5-59.225h59.56v-1h-59.56v1zM511.66-44.96v-59.725h-1v59.725h1zm-.5-59.225h59.56v-1h-59.56v1zM452.1-44.96v-59.725h-1v59.725h1zm-.5-59.225h59.56v-1H451.6v1zM392.54-44.96v-59.725h-1v59.725h1zm-.5-59.225h59.56v-1h-59.56v1zM332.98-44.96v-59.725h-1v59.725h1zm-.5-59.225h59.56v-1h-59.56v1zM273.42-44.96v-59.725h-1v59.725h1zm-.5-59.225h59.56v-1h-59.56v1zM213.86-44.96v-59.725h-1v59.725h1zm-.5-59.225h59.56v-1h-59.56v1zM154.3-44.96v-59.725h-1v59.725h1zm-.5-59.225h59.56v-1H153.8v1zM94.74-44.96v-59.725h-1v59.725h1zm-.5-59.225h59.56v-1H94.24v1zM35.18-44.96v-59.725h-1v59.725h1zm-.5-59.225h59.56v-1H34.68v1zM-24.38-44.96v-59.725h-1v59.725h1zm-.5-59.225h59.56v-1h-59.56v1zM-83.94-44.96v-59.725h-1v59.725h1zm-.5-59.225h59.56v-1h-59.56v1zm-59.56 0h59.56v-1H-144v1zm1429.94-.5v-59.726h-1v59.726h1zm-.5-59.226H1345v-1h-59.56v1zm-59.06 59.226v-59.726h-1v59.726h1zm-.5-59.226h59.56v-1h-59.56v1zm-59.06 59.226v-59.726h-1v59.726h1zm-.5-59.226h59.56v-1h-59.56v1zm-59.06 59.226v-59.726h-1v59.726h1zm-.5-59.226h59.56v-1h-59.56v1zm-59.06 59.226v-59.726h-1v59.726h1zm-.5-59.226h59.56v-1h-59.56v1zm-59.06 59.226v-59.726h-1v59.726h1zm-.5-59.226h59.56v-1h-59.56v1zm-59.06 59.226v-59.726h-1v59.726h1zm-.5-59.226h59.56v-1h-59.56v1zm-59.06 59.226v-59.726h-1v59.726h1zm-.5-59.226h59.56v-1h-59.56v1zm-59.06 59.226v-59.726h-1v59.726h1zm-.5-59.226h59.56v-1h-59.56v1zm-59.06 59.226v-59.726h-1v59.726h1zm-.5-59.226h59.56v-1H749.4v1zm-59.06 59.226v-59.726h-1v59.726h1zm-.5-59.226h59.56v-1h-59.56v1zm-59.06 59.226v-59.726h-1v59.726h1zm-.5-59.226h59.56v-1h-59.56v1zm-59.06 59.226v-59.726h-1v59.726h1zm-.5-59.226h59.56v-1h-59.56v1zm-59.06 59.226v-59.726h-1v59.726h1zm-.5-59.226h59.56v-1h-59.56v1zm-59.06 59.226v-59.726h-1v59.726h1zm-.5-59.226h59.56v-1H451.6v1zm-59.06 59.226v-59.726h-1v59.726h1zm-.5-59.226h59.56v-1h-59.56v1zm-59.06 59.226v-59.726h-1v59.726h1zm-.5-59.226h59.56v-1h-59.56v1zm-59.06 59.226v-59.726h-1v59.726h1zm-.5-59.226h59.56v-1h-59.56v1zm-59.06 59.226v-59.726h-1v59.726h1zm-.5-59.226h59.56v-1h-59.56v1zm-59.06 59.226v-59.726h-1v59.726h1zm-.5-59.226h59.56v-1H153.8v1zm-59.06 59.226v-59.726h-1v59.726h1zm-.5-59.226h59.56v-1H94.24v1zm-59.06 59.226v-59.726h-1v59.726h1zm-.5-59.226h59.56v-1H34.68v1zm-59.06 59.226v-59.726h-1v59.726h1zm-.5-59.226h59.56v-1h-59.56v1zm-59.06 59.226v-59.726h-1v59.726h1zm-.5-59.226h59.56v-1h-59.56v1zm-59.56 0h59.56v-1H-144v1zm1429.94-.5v-59.725h-1v59.725h1zm-59.56 0v-59.725h-1v59.725h1zm-59.56 0v-59.725h-1v59.725h1zm-59.56 0v-59.725h-1v59.725h1zm-59.56 0v-59.725h-1v59.725h1zm-59.56 0v-59.725h-1v59.725h1zm-59.56 0v-59.725h-1v59.725h1zm-59.56 0v-59.725h-1v59.725h1zm-59.56 0v-59.725h-1v59.725h1zm-59.56 0v-59.725h-1v59.725h1zm-59.56 0v-59.725h-1v59.725h1zm-59.56 0v-59.725h-1v59.725h1zm-59.56 0v-59.725h-1v59.725h1zm-59.56 0v-59.725h-1v59.725h1zm-59.56 0v-59.725h-1v59.725h1zm-59.56 0v-59.725h-1v59.725h1zm-59.56 0v-59.725h-1v59.725h1zm-59.56 0v-59.725h-1v59.725h1zm-59.56 0v-59.725h-1v59.725h1zm-59.56 0v-59.725h-1v59.725h1zm-59.56 0v-59.725h-1v59.725h1zm-59.56 0v-59.725h-1v59.725h1zm-59.56 0v-59.725h-1v59.725h1zm-59.56 0v-59.725h-1v59.725h1zM1345 1269v1h1v-1h-1zm-1489 0h-1v1h1v-1zM1345-224.136h1v-1h-1v1zm-1489 0v-1h-1v1h1zM1345 1268h-59.56v2H1345v-2zm-1-58.73V1269h2v-59.73h-2zm-58.56 58.73h-59.56v2h59.56v-2zm-59.56 0h-59.56v2h59.56v-2zm-59.56 0h-59.56v2h59.56v-2zm-59.56 0h-59.56v2h59.56v-2zm-59.56 0h-59.56v2h59.56v-2zm-59.56 0h-59.56v2h59.56v-2zm-59.56 0h-59.56v2h59.56v-2zm-59.56 0h-59.56v2h59.56v-2zm-59.56 0H749.4v2h59.56v-2zm-59.56 0h-59.56v2h59.56v-2zm-59.56 0h-59.56v2h59.56v-2zm-59.56 0h-59.56v2h59.56v-2zm-59.56 0h-59.56v2h59.56v-2zm-59.56 0H451.6v2h59.56v-2zm-59.56 0h-59.56v2h59.56v-2zm-59.56 0h-59.56v2h59.56v-2zm-59.56 0h-59.56v2h59.56v-2zm-59.56 0h-59.56v2h59.56v-2zm-59.56 0H153.8v2h59.56v-2zm-59.56 0H94.24v2h59.56v-2zm-59.56 0H34.68v2h59.56v-2zm-59.56 0h-59.56v2h59.56v-2zm-59.56 0h-59.56v2h59.56v-2zm-59.56 0H-144v2h59.56v-2zm-58.56 1v-59.73h-2V1269h2zm1487-119.45v59.72h2v-59.72h-2zm-1487 59.72v-59.72h-2v59.72h2zm1487-119.45v59.73h2v-59.73h-2zm-1487 59.73v-59.73h-2v59.73h2zm1487-119.45v59.72h2v-59.72h-2zm-1487 59.72v-59.72h-2v59.72h2zm1487-119.447v59.727h2v-59.727h-2zM-143 1030.1v-59.727h-2v59.727h2zm1487-119.453v59.726h2v-59.726h-2zm-1487 59.726v-59.726h-2v59.726h2zm1487-119.451v59.725h2v-59.725h-2zm-1487 59.725v-59.725h-2v59.725h2zm1487-119.451v59.726h2v-59.726h-2zm-1487 59.726v-59.726h-2v59.726h2zm1487-119.451v59.725h2v-59.725h-2zm-1487 59.725v-59.725h-2v59.725h2zm1487-119.45v59.725h2v-59.725h-2zm-1487 59.725v-59.725h-2v59.725h2zM1344 612.02v59.726h2V612.02h-2zm-1487 59.726V612.02h-2v59.726h2zm1487-119.451v59.725h2v-59.725h-2zM-143 612.02v-59.725h-2v59.725h2zm1487-119.451v59.726h2v-59.726h-2zm-1487 59.726v-59.726h-2v59.726h2zm1487-119.451v59.725h2v-59.725h-2zm-1487 59.725v-59.725h-2v59.725h2zm1487-119.451v59.726h2v-59.726h-2zm-1487 59.726v-59.726h-2v59.726h2zm1487-119.451v59.725h2v-59.725h-2zm-1487 59.725v-59.725h-2v59.725h2zm1487-119.451v59.726h2v-59.726h-2zm-1487 59.726v-59.726h-2v59.726h2zm1487-119.451v59.725h2v-59.725h-2zm-1487 59.725v-59.725h-2v59.725h2zm1487-119.451v59.726h2v-59.726h-2zm-1487 59.726v-59.726h-2v59.726h2zm1487-119.45v59.724h2V74.491h-2zm-1487 59.724V74.491h-2v59.725h2zm1487-119.45V74.49h2V14.766h-2zM-143 74.49V14.766h-2V74.49h2zM1344-44.96v59.725h2V-44.96h-2zM-143 14.765V-44.96h-2v59.726h2zm1487-119.451v59.725h2v-59.725h-2zM-143-44.96v-59.725h-2v59.725h2zm1487-119.45v59.726h2v-59.726h-2zm-1487 59.726v-59.726h-2v59.726h2zm1428.44-118.451H1345v-2h-59.56v2zm58.56-1v59.725h2v-59.725h-2zm-118.12 1h59.56v-2h-59.56v2zm-59.56 0h59.56v-2h-59.56v2zm-59.56 0h59.56v-2h-59.56v2zm-59.56 0h59.56v-2h-59.56v2zm-59.56 0h59.56v-2h-59.56v2zm-59.56 0h59.56v-2h-59.56v2zm-59.56 0h59.56v-2h-59.56v2zm-59.56 0h59.56v-2h-59.56v2zm-59.56 0h59.56v-2H749.4v2zm-59.56 0h59.56v-2h-59.56v2zm-59.56 0h59.56v-2h-59.56v2zm-59.56 0h59.56v-2h-59.56v2zm-59.56 0h59.56v-2h-59.56v2zm-59.56 0h59.56v-2H451.6v2zm-59.56 0h59.56v-2h-59.56v2zm-59.56 0h59.56v-2h-59.56v2zm-59.56 0h59.56v-2h-59.56v2zm-59.56 0h59.56v-2h-59.56v2zm-59.56 0h59.56v-2H153.8v2zm-59.56 0h59.56v-2H94.24v2zm-59.56 0h59.56v-2H34.68v2zm-59.56 0h59.56v-2h-59.56v2zm-59.56 0h59.56v-2h-59.56v2zM-143-164.411v-59.725h-2v59.725h2zm-1-58.725h59.56v-2H-144v2z" mask="url(#e)"/></g></g></g><defs><linearGradient id="b" x1="2065" x2="2065" y1="1361.7" y2="2805.7" gradientUnits="userSpaceOnUse"><stop stop-color="#fff"/><stop offset=".675" stop-color="#fff" stop-opacity="0"/></linearGradient><linearGradient id="c" x1="600" x2="600" y1="57" y2="2538" gradientUnits="userSpaceOnUse"><stop stop-color="#D9D9D9" stop-opacity="0"/><stop offset="1" stop-color="#D9D9D9"/></linearGradient><clipPath id="a"><path fill="#fff" d="M0 0h1200v1045H0z"/></clipPath></defs></svg>