<svg xmlns="http://www.w3.org/2000/svg" width="48" height="48" fill="none"><rect width="48" height="48" fill="#fff" rx="24"/><g clip-path="url(#a)"><path fill="#161616" d="M15.204 14.908c.867.706 1.195.656 2.83.547l15.418-.925c.328 0 .055-.328-.055-.383l-2.561-1.85c-.488-.384-1.144-.816-2.398-.712l-14.925 1.093c-.547.05-.656.324-.437.543l2.128 1.687zm.925 3.596v16.22c0 .87.433 1.198 1.413 1.143l16.945-.98c.98-.055 1.094-.652 1.094-1.363v-16.11c0-.71-.274-1.089-.875-1.033L17 17.415c-.656.055-.87.378-.87 1.085l-.002.004zm16.726.866c.11.492 0 .98-.493 1.04l-.815.164v11.971c-.712.384-1.363.602-1.905.602-.875 0-1.094-.274-1.746-1.09l-5.34-8.384v8.112l1.69.383s0 .98-1.362.98l-3.76.219c-.11-.219 0-.766.383-.87l.98-.275V21.5l-1.362-.11c-.11-.492.164-1.198.924-1.252l4.033-.274 5.56 8.495v-7.516l-1.418-.164c-.109-.597.324-1.035.871-1.085l3.76-.223zM12.26 11.208l15.527-1.144c1.905-.165 2.398-.055 3.595.815l4.959 3.486c.816.597 1.09.762 1.09 1.414v19.109c0 1.198-.438 1.905-1.96 2.014l-18.039 1.09c-1.139.054-1.686-.11-2.288-.871l-3.65-4.74c-.652-.87-.925-1.523-.925-2.283V13.113c0-.98.437-1.795 1.69-1.905h.001z"/></g><defs><clipPath id="a"><path fill="#fff" d="M10 10h28v28H10z"/></clipPath></defs></svg>