<svg xmlns="http://www.w3.org/2000/svg" width="35" height="35" fill="none"><path fill="#F8F8F8" d="M29.54 4.406H5.102c-.587 0-1.062.475-1.062 1.062v24.438a1.06 1.06 0 0 0 1.062 1.062H29.54a1.06 1.06 0 0 0 1.062-1.062V5.468a1.06 1.06 0 0 0-1.062-1.062zM11.919 27.04H7.978V14.363h3.94V27.04zm-1.97-14.41a2.284 2.284 0 1 1 .001-4.569 2.284 2.284 0 0 1 0 4.57zm16.725 14.41h-3.938v-6.165c0-1.471-.026-3.36-2.048-3.36-2.049 0-2.364 1.6-2.364 3.253v6.272h-3.935V14.363h3.779v1.734h.053c.524-.997 1.81-2.05 3.729-2.05 3.99 0 4.724 2.627 4.724 6.04v6.953z"/></svg>