<svg xmlns="http://www.w3.org/2000/svg" width="100" height="81" fill="none"><path fill="url(#a)" d="M66.334 40.96c-7.471 4.046-14.052 8.55-19.177 14.995-2.589 3.237-4.72 2.832-6.446-.647-.809-1.591-.7-2.4 1.133-3.614 4.37-2.886 7.498-7.12 10.114-11.65 1.214-2.131 2.158-4.423 3.129-6.662.296-.728.593-1.753-.108-2.32-.81-.674-1.51.19-2.158.62-.836.567-1.726 1.107-2.346 1.862-4.747 5.906-8.658 12.379-12.973 18.582-5.287 7.578-6.689 16.424-8.065 25.27-.215 1.322-.027 3.02-1.806 3.263-1.808.243-2.86-1.16-3.48-2.589-1.133-2.724-.62-5.555-.242-8.36.917-6.716 3.533-12.972 5.205-19.472.108-.432.243-.863.593-2.05-2.13 2.697-3.695 4.828-5.42 6.85-1.457 1.673-3.13 3.29-5.61 2.59-2.51-.702-3.345-2.913-3.992-5.152-.837-2.885 0-5.69.431-8.603a62.157 62.157 0 0 1-6.23 8.226c-1.645 1.807-3.587 3.128-6.015 2.157-2.4-.97-2.966-3.317-2.859-5.717.351-7.309 2.455-13.836 8.685-18.312 3.317-2.4 5.907-1.7 7.66 2.076.782 1.645 1.213 2.212 2.75.728 1.268-1.213 2.887-1.59 4.45-.296 1.592 1.348 1.727 3.02.702 4.665-2.481 3.938-2.562 8.496-3.533 12.838-.162.674-.459 1.591.459 1.915.782.27 1.348-.486 1.806-.998 2.698-3.102 4.91-6.58 7.094-10.033a16.578 16.578 0 0 1 3.344-3.83c2.104-1.806 2.374-4.827 2.751-7.497.27-2.05.405-4.072 3.075-3.857 2.4.19 3.236 1.97 3.29 4.262.054 2.562-1.24 4.72-1.968 7.066-.944 3.02-2.077 5.987-3.318 9.547 1.483-.81 1.861-1.834 2.373-2.67 3.345-5.34 6.716-10.653 10.6-15.616.674-.863 1.349-1.726 2.158-2.48 2.94-2.752 5.987-2.077 7.551 1.671 1.16 2.778 1.51 5.61.351 8.496-.647 1.591-1.187 3.21-1.969 5.313 2.994-1.376 5.583-2.562 8.145-3.776.756-.35.864-1.106 1.025-1.834 1.807-9.008 5.368-17.395 9.09-25.702 1.132-2.508 2.535-4.854 4.26-6.985 2.32-2.858 5.18-3.64 7.66-2.238 2.913 1.645 4.478 5.313 3.426 8.441-.567 1.7-1.322 3.452-2.347 4.909-4.666 6.634-8.307 13.97-13.782 20.038-2.184 2.427-2.238 5.69-3.101 8.657 1.213-2.238 2.697-4.234 4.126-6.284 2.886-4.126 6.015-8.037 10.41-10.707.945-.566 1.916-1.052 3.022-1.213 1.888-.27 3.425.296 4.504 1.915.998 1.537.97 3.074.08 4.638-1.752 3.02-4.45 5.043-7.335 6.797-1.78 1.105-3.615 2.157-5.53 2.993-1.833.782-2.157 1.996-1.752 3.722 1.078 4.8 3.802 5.583 7.767 2.724 3.533-2.535 6.338-5.664 9.062-8.954.567-.701 1.295-1.942 2.4-1.052.918.728.54 1.915-.107 2.724-4.019 5.205-8.307 10.167-14.349 13.161-3.29 1.618-4.53 1.295-6.904-1.402-1.322-1.51-2.239-3.29-3.156-5.421a27.522 27.522 0 0 0-3.479 5.717c-.81 1.753-2.104 2.535-3.965 2.05-1.78-.458-2.724-1.672-2.805-3.56-.242-3.344 1.08-6.419 1.645-9.925zM77.31 27.287c3.155-4.1 6.068-8.415 8.468-13.053 1.241-2.4 2.158-4.99 3.183-7.498.35-.836.243-1.672-.593-2.157-.81-.486-1.376.162-1.861.674-.513.512-.944 1.106-1.349 1.7-3.965 6.202-5.933 13.187-7.848 20.334zM6.485 49.186c2.697-2.75 4.37-5.556 6.42-8.09 1.834-2.266 1.834-4.505 1.078-7.094-.566-1.942-1.564-1.618-2.427-.485-.944 1.186-1.753 2.589-2.266 4.018-1.267 3.614-3.533 6.985-2.805 11.651z"/><defs><linearGradient id="a" x1="50" x2="100.5" y1=".313" y2="147.813" gradientUnits="userSpaceOnUse"><stop stop-color="#fff"/><stop offset="1" stop-color="#fff" stop-opacity="0"/></linearGradient></defs></svg>